<?xml version="1.0" standalone="no"?>
 <!DOCTYPE svg PUBLIC "-//W3C//DTD SVG 1.1//EN" 
 "http://www.w3.org/Graphics/SVG/1.1/DTD/svg11.dtd"> 
<svg xmlns="http://www.w3.org/2000/svg" version="1.1" 
    width="29.7002cm" height="21.0007cm" viewBox="0 0 116930 82680 ">
<title>SVG Picture created as rover-brd.svg date 2015/02/26 15:05:26 </title>
  <desc>Picture generated by PCBNEW </desc>
<g style="fill:#000000; fill-opacity:1;stroke:#000000; stroke-opacity:1;
stroke-linecap:round; stroke-linejoin:round; "
 transform="translate(0 0) scale(1 1)">
</g>
<g style="fill:#000000; fill-opacity:0.0; 
stroke:#000000; stroke-width:39.3701; stroke-opacity:1; 
stroke-linecap:round; stroke-linejoin:round;">
</g>
<g style="fill:#000000; fill-opacity:0.0; 
stroke:#000000; stroke-width:59.0551; stroke-opacity:1; 
stroke-linecap:round; stroke-linejoin:round;">
<rect x="69685.9" y="65357.2" width="42519.7" height="12598.4" rx="0" />
</g>
<g style="fill:#000000; fill-opacity:0.0; 
stroke:#000000; stroke-width:39.3701; stroke-opacity:1; 
stroke-linecap:round; stroke-linejoin:round;">
</g>
<g style="fill:#000000; fill-opacity:0.0; 
stroke:#000000; stroke-width:59.0551; stroke-opacity:1; 
stroke-linecap:round; stroke-linejoin:round;">
<rect x="3937.01" y="3937.01" width="109056" height="74806" rx="0" />
</g>
<g style="fill:#000000; fill-opacity:0.0; 
stroke:#000000; stroke-width:39.3701; stroke-opacity:1; 
stroke-linecap:round; stroke-linejoin:round;">
</g>
<g style="fill:#000000; fill-opacity:0.0; 
stroke:#000000; stroke-width:59.0551; stroke-opacity:1; 
stroke-linecap:round; stroke-linejoin:round;">
<rect x="4724.41" y="4724.41" width="107481" height="73231.2" rx="0" />
</g>
<g style="fill:#000000; fill-opacity:0.0; 
stroke:#000000; stroke-width:39.3701; stroke-opacity:1; 
stroke-linecap:round; stroke-linejoin:round;">
</g>
<g style="fill:#000000; fill-opacity:0.0; 
stroke:#000000; stroke-width:59.0551; stroke-opacity:1; 
stroke-linecap:round; stroke-linejoin:round;">
<path d="M23622 4724
L23622 3937
" />
</g>
<g style="fill:#000000; fill-opacity:0.0; 
stroke:#000000; stroke-width:39.3701; stroke-opacity:1; 
stroke-linecap:round; stroke-linejoin:round;">
</g>
<g style="fill:#000000; fill-opacity:0.0; 
stroke:#000000; stroke-width:59.0551; stroke-opacity:1; 
stroke-linecap:round; stroke-linejoin:round;">
<path d="M43307 4724
L43307 3937
" />
</g>
<g style="fill:#000000; fill-opacity:0.0; 
stroke:#000000; stroke-width:39.3701; stroke-opacity:1; 
stroke-linecap:round; stroke-linejoin:round;">
</g>
<g style="fill:#000000; fill-opacity:0.0; 
stroke:#000000; stroke-width:59.0551; stroke-opacity:1; 
stroke-linecap:round; stroke-linejoin:round;">
<path d="M62992 4724
L62992 3937
" />
</g>
<g style="fill:#000000; fill-opacity:0.0; 
stroke:#000000; stroke-width:39.3701; stroke-opacity:1; 
stroke-linecap:round; stroke-linejoin:round;">
</g>
<g style="fill:#000000; fill-opacity:0.0; 
stroke:#000000; stroke-width:59.0551; stroke-opacity:1; 
stroke-linecap:round; stroke-linejoin:round;">
<path d="M82677 4724
L82677 3937
" />
</g>
<g style="fill:#000000; fill-opacity:0.0; 
stroke:#000000; stroke-width:39.3701; stroke-opacity:1; 
stroke-linecap:round; stroke-linejoin:round;">
</g>
<g style="fill:#000000; fill-opacity:0.0; 
stroke:#000000; stroke-width:59.0551; stroke-opacity:1; 
stroke-linecap:round; stroke-linejoin:round;">
<path d="M102362 4724
L102362 3937
" />
</g>
<g style="fill:#000000; fill-opacity:0.0; 
stroke:#000000; stroke-width:39.3701; stroke-opacity:1; 
stroke-linecap:round; stroke-linejoin:round;">
</g>
<g style="fill:#000000; fill-opacity:0.0; 
stroke:#000000; stroke-width:59.0551; stroke-opacity:1; 
stroke-linecap:round; stroke-linejoin:round;">
<path d="M14169 4562
L13877 4562
" />
<path d="M14023 4562
L14023 4050
L13974 4123
L13925 4172
L13877 4196
" />
</g>
<g style="fill:#000000; fill-opacity:0.0; 
stroke:#000000; stroke-width:39.3701; stroke-opacity:1; 
stroke-linecap:round; stroke-linejoin:round;">
</g>
<g style="fill:#000000; fill-opacity:0.0; 
stroke:#000000; stroke-width:59.0551; stroke-opacity:1; 
stroke-linecap:round; stroke-linejoin:round;">
<path d="M33562 4099
L33586 4074
L33635 4050
L33757 4050
L33805 4074
L33830 4099
L33854 4147
L33854 4196
L33830 4269
L33537 4562
L33854 4562
" />
</g>
<g style="fill:#000000; fill-opacity:0.0; 
stroke:#000000; stroke-width:39.3701; stroke-opacity:1; 
stroke-linecap:round; stroke-linejoin:round;">
</g>
<g style="fill:#000000; fill-opacity:0.0; 
stroke:#000000; stroke-width:59.0551; stroke-opacity:1; 
stroke-linecap:round; stroke-linejoin:round;">
<path d="M53222 4050
L53539 4050
L53368 4245
L53442 4245
L53490 4269
L53515 4294
L53539 4342
L53539 4464
L53515 4513
L53490 4537
L53442 4562
L53295 4562
L53247 4537
L53222 4513
" />
</g>
<g style="fill:#000000; fill-opacity:0.0; 
stroke:#000000; stroke-width:39.3701; stroke-opacity:1; 
stroke-linecap:round; stroke-linejoin:round;">
</g>
<g style="fill:#000000; fill-opacity:0.0; 
stroke:#000000; stroke-width:59.0551; stroke-opacity:1; 
stroke-linecap:round; stroke-linejoin:round;">
<path d="M73175 4221
L73175 4562
" />
<path d="M73053 4026
L72932 4391
L73248 4391
" />
</g>
<g style="fill:#000000; fill-opacity:0.0; 
stroke:#000000; stroke-width:39.3701; stroke-opacity:1; 
stroke-linecap:round; stroke-linejoin:round;">
</g>
<g style="fill:#000000; fill-opacity:0.0; 
stroke:#000000; stroke-width:59.0551; stroke-opacity:1; 
stroke-linecap:round; stroke-linejoin:round;">
<path d="M92885 4050
L92641 4050
L92617 4294
L92641 4269
L92690 4245
L92812 4245
L92860 4269
L92885 4294
L92909 4342
L92909 4464
L92885 4513
L92860 4537
L92812 4562
L92690 4562
L92641 4537
L92617 4513
" />
</g>
<g style="fill:#000000; fill-opacity:0.0; 
stroke:#000000; stroke-width:39.3701; stroke-opacity:1; 
stroke-linecap:round; stroke-linejoin:round;">
</g>
<g style="fill:#000000; fill-opacity:0.0; 
stroke:#000000; stroke-width:59.0551; stroke-opacity:1; 
stroke-linecap:round; stroke-linejoin:round;">
<path d="M112545 4050
L112448 4050
L112399 4074
L112375 4099
L112326 4172
L112302 4269
L112302 4464
L112326 4513
L112350 4537
L112399 4562
L112497 4562
L112545 4537
L112570 4513
L112594 4464
L112594 4342
L112570 4294
L112545 4269
L112497 4245
L112399 4245
L112350 4269
L112326 4294
L112302 4342
" />
</g>
<g style="fill:#000000; fill-opacity:0.0; 
stroke:#000000; stroke-width:39.3701; stroke-opacity:1; 
stroke-linecap:round; stroke-linejoin:round;">
</g>
<g style="fill:#000000; fill-opacity:0.0; 
stroke:#000000; stroke-width:59.0551; stroke-opacity:1; 
stroke-linecap:round; stroke-linejoin:round;">
<path d="M23622 77955
L23622 78742
" />
</g>
<g style="fill:#000000; fill-opacity:0.0; 
stroke:#000000; stroke-width:39.3701; stroke-opacity:1; 
stroke-linecap:round; stroke-linejoin:round;">
</g>
<g style="fill:#000000; fill-opacity:0.0; 
stroke:#000000; stroke-width:59.0551; stroke-opacity:1; 
stroke-linecap:round; stroke-linejoin:round;">
<path d="M43307 77955
L43307 78742
" />
</g>
<g style="fill:#000000; fill-opacity:0.0; 
stroke:#000000; stroke-width:39.3701; stroke-opacity:1; 
stroke-linecap:round; stroke-linejoin:round;">
</g>
<g style="fill:#000000; fill-opacity:0.0; 
stroke:#000000; stroke-width:59.0551; stroke-opacity:1; 
stroke-linecap:round; stroke-linejoin:round;">
<path d="M62992 77955
L62992 78742
" />
</g>
<g style="fill:#000000; fill-opacity:0.0; 
stroke:#000000; stroke-width:39.3701; stroke-opacity:1; 
stroke-linecap:round; stroke-linejoin:round;">
</g>
<g style="fill:#000000; fill-opacity:0.0; 
stroke:#000000; stroke-width:59.0551; stroke-opacity:1; 
stroke-linecap:round; stroke-linejoin:round;">
<path d="M82677 77955
L82677 78742
" />
</g>
<g style="fill:#000000; fill-opacity:0.0; 
stroke:#000000; stroke-width:39.3701; stroke-opacity:1; 
stroke-linecap:round; stroke-linejoin:round;">
</g>
<g style="fill:#000000; fill-opacity:0.0; 
stroke:#000000; stroke-width:59.0551; stroke-opacity:1; 
stroke-linecap:round; stroke-linejoin:round;">
<path d="M102362 77955
L102362 78742
" />
</g>
<g style="fill:#000000; fill-opacity:0.0; 
stroke:#000000; stroke-width:39.3701; stroke-opacity:1; 
stroke-linecap:round; stroke-linejoin:round;">
</g>
<g style="fill:#000000; fill-opacity:0.0; 
stroke:#000000; stroke-width:59.0551; stroke-opacity:1; 
stroke-linecap:round; stroke-linejoin:round;">
<path d="M14169 78580
L13877 78580
" />
<path d="M14023 78580
L14023 78069
L13974 78142
L13925 78190
L13877 78215
" />
</g>
<g style="fill:#000000; fill-opacity:0.0; 
stroke:#000000; stroke-width:39.3701; stroke-opacity:1; 
stroke-linecap:round; stroke-linejoin:round;">
</g>
<g style="fill:#000000; fill-opacity:0.0; 
stroke:#000000; stroke-width:59.0551; stroke-opacity:1; 
stroke-linecap:round; stroke-linejoin:round;">
<path d="M33562 78117
L33586 78093
L33635 78069
L33757 78069
L33805 78093
L33830 78117
L33854 78166
L33854 78215
L33830 78288
L33537 78580
L33854 78580
" />
</g>
<g style="fill:#000000; fill-opacity:0.0; 
stroke:#000000; stroke-width:39.3701; stroke-opacity:1; 
stroke-linecap:round; stroke-linejoin:round;">
</g>
<g style="fill:#000000; fill-opacity:0.0; 
stroke:#000000; stroke-width:59.0551; stroke-opacity:1; 
stroke-linecap:round; stroke-linejoin:round;">
<path d="M53222 78069
L53539 78069
L53368 78263
L53442 78263
L53490 78288
L53515 78312
L53539 78361
L53539 78483
L53515 78532
L53490 78556
L53442 78580
L53295 78580
L53247 78556
L53222 78532
" />
</g>
<g style="fill:#000000; fill-opacity:0.0; 
stroke:#000000; stroke-width:39.3701; stroke-opacity:1; 
stroke-linecap:round; stroke-linejoin:round;">
</g>
<g style="fill:#000000; fill-opacity:0.0; 
stroke:#000000; stroke-width:59.0551; stroke-opacity:1; 
stroke-linecap:round; stroke-linejoin:round;">
<path d="M73175 78239
L73175 78580
" />
<path d="M73053 78044
L72932 78410
L73248 78410
" />
</g>
<g style="fill:#000000; fill-opacity:0.0; 
stroke:#000000; stroke-width:39.3701; stroke-opacity:1; 
stroke-linecap:round; stroke-linejoin:round;">
</g>
<g style="fill:#000000; fill-opacity:0.0; 
stroke:#000000; stroke-width:59.0551; stroke-opacity:1; 
stroke-linecap:round; stroke-linejoin:round;">
<path d="M92885 78069
L92641 78069
L92617 78312
L92641 78288
L92690 78263
L92812 78263
L92860 78288
L92885 78312
L92909 78361
L92909 78483
L92885 78532
L92860 78556
L92812 78580
L92690 78580
L92641 78556
L92617 78532
" />
</g>
<g style="fill:#000000; fill-opacity:0.0; 
stroke:#000000; stroke-width:39.3701; stroke-opacity:1; 
stroke-linecap:round; stroke-linejoin:round;">
</g>
<g style="fill:#000000; fill-opacity:0.0; 
stroke:#000000; stroke-width:59.0551; stroke-opacity:1; 
stroke-linecap:round; stroke-linejoin:round;">
<path d="M112545 78069
L112448 78069
L112399 78093
L112375 78117
L112326 78190
L112302 78288
L112302 78483
L112326 78532
L112350 78556
L112399 78580
L112497 78580
L112545 78556
L112570 78532
L112594 78483
L112594 78361
L112570 78312
L112545 78288
L112497 78263
L112399 78263
L112350 78288
L112326 78312
L112302 78361
" />
</g>
<g style="fill:#000000; fill-opacity:0.0; 
stroke:#000000; stroke-width:39.3701; stroke-opacity:1; 
stroke-linecap:round; stroke-linejoin:round;">
</g>
<g style="fill:#000000; fill-opacity:0.0; 
stroke:#000000; stroke-width:59.0551; stroke-opacity:1; 
stroke-linecap:round; stroke-linejoin:round;">
<path d="M3937 23622
L4724 23622
" />
</g>
<g style="fill:#000000; fill-opacity:0.0; 
stroke:#000000; stroke-width:39.3701; stroke-opacity:1; 
stroke-linecap:round; stroke-linejoin:round;">
</g>
<g style="fill:#000000; fill-opacity:0.0; 
stroke:#000000; stroke-width:59.0551; stroke-opacity:1; 
stroke-linecap:round; stroke-linejoin:round;">
<path d="M3937 43307
L4724 43307
" />
</g>
<g style="fill:#000000; fill-opacity:0.0; 
stroke:#000000; stroke-width:39.3701; stroke-opacity:1; 
stroke-linecap:round; stroke-linejoin:round;">
</g>
<g style="fill:#000000; fill-opacity:0.0; 
stroke:#000000; stroke-width:59.0551; stroke-opacity:1; 
stroke-linecap:round; stroke-linejoin:round;">
<path d="M3937 62992
L4724 62992
" />
</g>
<g style="fill:#000000; fill-opacity:0.0; 
stroke:#000000; stroke-width:39.3701; stroke-opacity:1; 
stroke-linecap:round; stroke-linejoin:round;">
</g>
<g style="fill:#000000; fill-opacity:0.0; 
stroke:#000000; stroke-width:59.0551; stroke-opacity:1; 
stroke-linecap:round; stroke-linejoin:round;">
<path d="M4208 13864
L4452 13864
" />
<path d="M4160 14011
L4330 13499
L4501 14011
" />
</g>
<g style="fill:#000000; fill-opacity:0.0; 
stroke:#000000; stroke-width:39.3701; stroke-opacity:1; 
stroke-linecap:round; stroke-linejoin:round;">
</g>
<g style="fill:#000000; fill-opacity:0.0; 
stroke:#000000; stroke-width:59.0551; stroke-opacity:1; 
stroke-linecap:round; stroke-linejoin:round;">
<path d="M4367 33428
L4440 33452
L4464 33476
L4489 33525
L4489 33598
L4464 33647
L4440 33671
L4391 33696
L4196 33696
L4196 33184
L4367 33184
L4416 33208
L4440 33233
L4464 33281
L4464 33330
L4440 33379
L4416 33403
L4367 33428
L4196 33428
" />
</g>
<g style="fill:#000000; fill-opacity:0.0; 
stroke:#000000; stroke-width:39.3701; stroke-opacity:1; 
stroke-linecap:round; stroke-linejoin:round;">
</g>
<g style="fill:#000000; fill-opacity:0.0; 
stroke:#000000; stroke-width:59.0551; stroke-opacity:1; 
stroke-linecap:round; stroke-linejoin:round;">
<path d="M4489 53332
L4464 53356
L4391 53381
L4342 53381
L4269 53356
L4221 53308
L4196 53259
L4172 53161
L4172 53088
L4196 52991
L4221 52942
L4269 52893
L4342 52869
L4391 52869
L4464 52893
L4489 52918
" />
</g>
<g style="fill:#000000; fill-opacity:0.0; 
stroke:#000000; stroke-width:39.3701; stroke-opacity:1; 
stroke-linecap:round; stroke-linejoin:round;">
</g>
<g style="fill:#000000; fill-opacity:0.0; 
stroke:#000000; stroke-width:59.0551; stroke-opacity:1; 
stroke-linecap:round; stroke-linejoin:round;">
<path d="M4196 73066
L4196 72554
L4318 72554
L4391 72578
L4440 72627
L4464 72676
L4489 72773
L4489 72846
L4464 72944
L4440 72993
L4391 73041
L4318 73066
L4196 73066
" />
</g>
<g style="fill:#000000; fill-opacity:0.0; 
stroke:#000000; stroke-width:39.3701; stroke-opacity:1; 
stroke-linecap:round; stroke-linejoin:round;">
</g>
<g style="fill:#000000; fill-opacity:0.0; 
stroke:#000000; stroke-width:59.0551; stroke-opacity:1; 
stroke-linecap:round; stroke-linejoin:round;">
<path d="M112992 23622
L112205 23622
" />
</g>
<g style="fill:#000000; fill-opacity:0.0; 
stroke:#000000; stroke-width:39.3701; stroke-opacity:1; 
stroke-linecap:round; stroke-linejoin:round;">
</g>
<g style="fill:#000000; fill-opacity:0.0; 
stroke:#000000; stroke-width:59.0551; stroke-opacity:1; 
stroke-linecap:round; stroke-linejoin:round;">
<path d="M112992 43307
L112205 43307
" />
</g>
<g style="fill:#000000; fill-opacity:0.0; 
stroke:#000000; stroke-width:39.3701; stroke-opacity:1; 
stroke-linecap:round; stroke-linejoin:round;">
</g>
<g style="fill:#000000; fill-opacity:0.0; 
stroke:#000000; stroke-width:59.0551; stroke-opacity:1; 
stroke-linecap:round; stroke-linejoin:round;">
<path d="M112992 62992
L112205 62992
" />
</g>
<g style="fill:#000000; fill-opacity:0.0; 
stroke:#000000; stroke-width:39.3701; stroke-opacity:1; 
stroke-linecap:round; stroke-linejoin:round;">
</g>
<g style="fill:#000000; fill-opacity:0.0; 
stroke:#000000; stroke-width:59.0551; stroke-opacity:1; 
stroke-linecap:round; stroke-linejoin:round;">
<path d="M112477 13864
L112721 13864
" />
<path d="M112428 14011
L112599 13499
L112769 14011
" />
</g>
<g style="fill:#000000; fill-opacity:0.0; 
stroke:#000000; stroke-width:39.3701; stroke-opacity:1; 
stroke-linecap:round; stroke-linejoin:round;">
</g>
<g style="fill:#000000; fill-opacity:0.0; 
stroke:#000000; stroke-width:59.0551; stroke-opacity:1; 
stroke-linecap:round; stroke-linejoin:round;">
<path d="M112635 33428
L112708 33452
L112733 33476
L112757 33525
L112757 33598
L112733 33647
L112708 33671
L112660 33696
L112465 33696
L112465 33184
L112635 33184
L112684 33208
L112708 33233
L112733 33281
L112733 33330
L112708 33379
L112684 33403
L112635 33428
L112465 33428
" />
</g>
<g style="fill:#000000; fill-opacity:0.0; 
stroke:#000000; stroke-width:39.3701; stroke-opacity:1; 
stroke-linecap:round; stroke-linejoin:round;">
</g>
<g style="fill:#000000; fill-opacity:0.0; 
stroke:#000000; stroke-width:59.0551; stroke-opacity:1; 
stroke-linecap:round; stroke-linejoin:round;">
<path d="M112757 53332
L112733 53356
L112660 53381
L112611 53381
L112538 53356
L112489 53308
L112465 53259
L112440 53161
L112440 53088
L112465 52991
L112489 52942
L112538 52893
L112611 52869
L112660 52869
L112733 52893
L112757 52918
" />
</g>
<g style="fill:#000000; fill-opacity:0.0; 
stroke:#000000; stroke-width:39.3701; stroke-opacity:1; 
stroke-linecap:round; stroke-linejoin:round;">
</g>
<g style="fill:#000000; fill-opacity:0.0; 
stroke:#000000; stroke-width:59.0551; stroke-opacity:1; 
stroke-linecap:round; stroke-linejoin:round;">
<path d="M112465 73066
L112465 72554
L112587 72554
L112660 72578
L112708 72627
L112733 72676
L112757 72773
L112757 72846
L112733 72944
L112708 72993
L112660 73041
L112587 73066
L112465 73066
" />
</g>
<g style="fill:#000000; fill-opacity:0.0; 
stroke:#000000; stroke-width:39.3701; stroke-opacity:1; 
stroke-linecap:round; stroke-linejoin:round;">
</g>
<g style="fill:#000000; fill-opacity:0.0; 
stroke:#000000; stroke-width:59.0551; stroke-opacity:1; 
stroke-linecap:round; stroke-linejoin:round;">
<path d="M78881 76293
L78881 75703
L79022 75703
L79106 75731
L79162 75787
L79190 75843
L79219 75956
L79219 76040
L79190 76153
L79162 76209
L79106 76265
L79022 76293
L78881 76293
" />
<path d="M79725 76293
L79725 75984
L79697 75928
L79640 75899
L79528 75899
L79472 75928
" />
<path d="M79725 76265
L79669 76293
L79528 76293
L79472 76265
L79444 76209
L79444 76153
L79472 76096
L79528 76068
L79669 76068
L79725 76040
" />
<path d="M79922 75899
L80147 75899
" />
<path d="M80006 75703
L80006 76209
L80034 76265
L80090 76293
L80147 76293
" />
<path d="M80568 76265
L80512 76293
L80400 76293
L80343 76265
L80315 76209
L80315 75984
L80343 75928
L80400 75899
L80512 75899
L80568 75928
L80597 75984
L80597 76040
L80315 76096
" />
<path d="M80850 76237
L80878 76265
L80850 76293
L80822 76265
L80850 76237
L80850 76293
" />
<path d="M80850 75928
L80878 75956
L80850 75984
L80822 75956
L80850 75928
L80850 75984
" />
<path d="M81496 75703
L81834 75703
" />
<path d="M81665 76293
L81665 75703
" />
<path d="M82031 76293
L82031 75703
" />
<path d="M82284 76293
L82284 75984
L82256 75928
L82199 75899
L82115 75899
L82059 75928
L82031 75956
" />
<path d="M82818 75899
L82818 76293
" />
<path d="M82565 75899
L82565 76209
L82593 76265
L82649 76293
L82734 76293
L82790 76265
L82818 76237
" />
<path d="M83099 76293
L83099 75899
" />
<path d="M83099 76012
L83127 75956
L83156 75928
L83212 75899
L83268 75899
" />
<path d="M83437 76265
L83493 76293
L83606 76293
L83662 76265
L83690 76209
L83690 76181
L83662 76124
L83606 76096
L83521 76096
L83465 76068
L83437 76012
L83437 75984
L83465 75928
L83521 75899
L83606 75899
L83662 75928
" />
<path d="M84196 76293
L84196 75703
" />
<path d="M84196 76265
L84140 76293
L84027 76293
L83971 76265
L83943 76237
L83915 76181
L83915 76012
L83943 75956
L83971 75928
L84027 75899
L84140 75899
L84196 75928
" />
<path d="M84730 76293
L84730 75984
L84702 75928
L84646 75899
L84534 75899
L84477 75928
" />
<path d="M84730 76265
L84674 76293
L84534 76293
L84477 76265
L84449 76209
L84449 76153
L84477 76096
L84534 76068
L84674 76068
L84730 76040
" />
<path d="M84955 75899
L85096 76293
" />
<path d="M85237 75899
L85096 76293
L85040 76434
L85012 76462
L84955 76490
" />
<path d="M85490 76265
L85490 76293
L85462 76349
L85433 76377
" />
<path d="M86390 75984
L86193 75984
" />
<path d="M86193 76293
L86193 75703
L86474 75703
" />
<path d="M86924 76265
L86868 76293
L86755 76293
L86699 76265
L86671 76209
L86671 75984
L86699 75928
L86755 75899
L86868 75899
L86924 75928
L86952 75984
L86952 76040
L86671 76096
" />
<path d="M87205 76293
L87205 75703
" />
<path d="M87205 75928
L87261 75899
L87374 75899
L87430 75928
L87458 75956
L87486 76012
L87486 76181
L87458 76237
L87430 76265
L87374 76293
L87261 76293
L87205 76265
" />
<path d="M87739 76293
L87739 75899
" />
<path d="M87739 76012
L87768 75956
L87796 75928
L87852 75899
L87908 75899
" />
<path d="M88358 75899
L88358 76293
" />
<path d="M88105 75899
L88105 76209
L88133 76265
L88189 76293
L88274 76293
L88330 76265
L88358 76237
" />
<path d="M88892 76293
L88892 75984
L88864 75928
L88808 75899
L88696 75899
L88639 75928
" />
<path d="M88892 76265
L88836 76293
L88696 76293
L88639 76265
L88611 76209
L88611 76153
L88639 76096
L88696 76068
L88836 76068
L88892 76040
" />
<path d="M89174 76293
L89174 75899
" />
<path d="M89174 76012
L89202 75956
L89230 75928
L89286 75899
L89342 75899
" />
<path d="M89483 75899
L89624 76293
" />
<path d="M89764 75899
L89624 76293
L89567 76434
L89539 76462
L89483 76490
" />
<path d="M90411 75759
L90439 75731
L90495 75703
L90636 75703
L90692 75731
L90720 75759
L90748 75815
L90748 75871
L90720 75956
L90383 76293
L90748 76293
" />
<path d="M91255 75703
L91142 75703
L91086 75731
L91058 75759
L91001 75843
L90973 75956
L90973 76181
L91001 76237
L91030 76265
L91086 76293
L91198 76293
L91255 76265
L91283 76237
L91311 76181
L91311 76040
L91283 75984
L91255 75956
L91198 75928
L91086 75928
L91030 75956
L91001 75984
L90973 76040
" />
<path d="M91592 76265
L91592 76293
L91564 76349
L91536 76377
" />
<path d="M92267 75759
L92295 75731
L92351 75703
L92492 75703
L92548 75731
L92576 75759
L92604 75815
L92604 75871
L92576 75956
L92239 76293
L92604 76293
" />
<path d="M92970 75703
L93026 75703
L93082 75731
L93111 75759
L93139 75815
L93167 75928
L93167 76068
L93139 76181
L93111 76237
L93082 76265
L93026 76293
L92970 76293
L92914 76265
L92886 76237
L92858 76181
L92829 76068
L92829 75928
L92858 75815
L92886 75759
L92914 75731
L92970 75703
" />
<path d="M93729 76293
L93392 76293
" />
<path d="M93561 76293
L93561 75703
L93504 75787
L93448 75843
L93392 75871
" />
<path d="M94264 75703
L93982 75703
L93954 75984
L93982 75956
L94039 75928
L94179 75928
L94235 75956
L94264 75984
L94292 76040
L94292 76181
L94264 76237
L94235 76265
L94179 76293
L94039 76293
L93982 76265
L93954 76237
" />
</g>
<g style="fill:#000000; fill-opacity:0.0; 
stroke:#000000; stroke-width:39.3701; stroke-opacity:1; 
stroke-linecap:round; stroke-linejoin:round;">
</g>
<g style="fill:#000000; fill-opacity:0.0; 
stroke:#000000; stroke-width:59.0551; stroke-opacity:1; 
stroke-linecap:round; stroke-linejoin:round;">
<path d="M69685 76577
L112205 76577
" />
</g>
<g style="fill:#000000; fill-opacity:0.0; 
stroke:#000000; stroke-width:39.3701; stroke-opacity:1; 
stroke-linecap:round; stroke-linejoin:round;">
</g>
<g style="fill:#000000; fill-opacity:0.0; 
stroke:#000000; stroke-width:59.0551; stroke-opacity:1; 
stroke-linecap:round; stroke-linejoin:round;">
<path d="M70220 77395
L70220 76805
" />
<path d="M70557 77395
L70304 77058
" />
<path d="M70557 76805
L70220 77142
" />
<path d="M70810 77395
L70810 77002
" />
<path d="M70810 76805
L70782 76833
L70810 76861
L70838 76833
L70810 76805
L70810 76861
" />
<path d="M71429 77339
L71401 77367
L71316 77395
L71260 77395
L71176 77367
L71120 77311
L71091 77255
L71063 77142
L71063 77058
L71091 76946
L71120 76889
L71176 76833
L71260 76805
L71316 76805
L71401 76833
L71429 76861
" />
<path d="M71935 77395
L71935 77086
L71907 77030
L71851 77002
L71738 77002
L71682 77030
" />
<path d="M71935 77367
L71879 77395
L71738 77395
L71682 77367
L71654 77311
L71654 77255
L71682 77199
L71738 77171
L71879 77171
L71935 77142
" />
<path d="M72469 77395
L72469 76805
" />
<path d="M72469 77367
L72413 77395
L72301 77395
L72244 77367
L72216 77339
L72188 77283
L72188 77114
L72216 77058
L72244 77030
L72301 77002
L72413 77002
L72469 77030
" />
<path d="M73201 77086
L73397 77086
" />
<path d="M73482 77395
L73201 77395
L73201 76805
L73482 76805
" />
<path d="M73735 77339
L73763 77367
L73735 77395
L73707 77367
L73735 77339
L73735 77395
" />
<path d="M74016 77395
L74016 76805
L74157 76805
L74241 76833
L74297 76889
L74325 76946
L74354 77058
L74354 77142
L74325 77255
L74297 77311
L74241 77367
L74157 77395
L74016 77395
" />
<path d="M74607 77339
L74635 77367
L74607 77395
L74579 77367
L74607 77339
L74607 77395
" />
<path d="M74860 77227
L75141 77227
" />
<path d="M74804 77395
L75000 76805
L75197 77395
" />
<path d="M75394 77339
L75422 77367
L75394 77395
L75366 77367
L75394 77339
L75394 77395
" />
<path d="M76575 77395
L76575 76805
" />
<path d="M76631 77171
L76800 77395
" />
<path d="M76800 77002
L76575 77227
" />
<path d="M77053 77395
L77053 77002
" />
<path d="M77053 76805
L77025 76833
L77053 76861
L77081 76833
L77053 76805
L77053 76861
" />
<path d="M77588 77367
L77531 77395
L77419 77395
L77363 77367
L77334 77339
L77306 77283
L77306 77114
L77334 77058
L77363 77030
L77419 77002
L77531 77002
L77588 77030
" />
<path d="M78094 77395
L78094 77086
L78066 77030
L78009 77002
L77897 77002
L77841 77030
" />
<path d="M78094 77367
L78037 77395
L77897 77395
L77841 77367
L77813 77311
L77813 77255
L77841 77199
L77897 77171
L78037 77171
L78094 77142
" />
<path d="M78628 77395
L78628 76805
" />
<path d="M78628 77367
L78572 77395
L78459 77395
L78403 77367
L78375 77339
L78347 77283
L78347 77114
L78375 77058
L78403 77030
L78459 77002
L78572 77002
L78628 77030
" />
<path d="M79528 77620
L79500 77592
L79444 77508
L79415 77452
L79387 77367
L79359 77227
L79359 77114
L79387 76974
L79415 76889
L79444 76833
L79500 76749
L79528 76721
" />
<path d="M79725 76861
L79753 76833
L79809 76805
L79950 76805
L80006 76833
L80034 76861
L80062 76917
L80062 76974
L80034 77058
L79697 77395
L80062 77395
" />
<path d="M80428 76805
L80484 76805
L80540 76833
L80568 76861
L80597 76917
L80625 77030
L80625 77171
L80597 77283
L80568 77339
L80540 77367
L80484 77395
L80428 77395
L80372 77367
L80343 77339
L80315 77283
L80287 77171
L80287 77030
L80315 76917
L80343 76861
L80372 76833
L80428 76805
" />
<path d="M81187 77395
L80850 77395
" />
<path d="M81018 77395
L81018 76805
L80962 76889
L80906 76946
L80850 76974
" />
<path d="M81721 76805
L81440 76805
L81412 77086
L81440 77058
L81496 77030
L81637 77030
L81693 77058
L81721 77086
L81750 77142
L81750 77283
L81721 77339
L81693 77367
L81637 77395
L81496 77395
L81440 77367
L81412 77339
" />
<path d="M82003 77171
L82453 77171
" />
<path d="M82846 76805
L82903 76805
L82959 76833
L82987 76861
L83015 76917
L83043 77030
L83043 77171
L83015 77283
L82987 77339
L82959 77367
L82903 77395
L82846 77395
L82790 77367
L82762 77339
L82734 77283
L82706 77171
L82706 77030
L82734 76917
L82762 76861
L82790 76833
L82846 76805
" />
<path d="M83606 77395
L83268 77395
" />
<path d="M83437 77395
L83437 76805
L83381 76889
L83324 76946
L83268 76974
" />
<path d="M83859 77171
L84309 77171
" />
<path d="M84899 77395
L84562 77395
" />
<path d="M84730 77395
L84730 76805
L84674 76889
L84618 76946
L84562 76974
" />
<path d="M85405 76805
L85293 76805
L85237 76833
L85208 76861
L85152 76946
L85124 77058
L85124 77283
L85152 77339
L85180 77367
L85237 77395
L85349 77395
L85405 77367
L85433 77339
L85462 77283
L85462 77142
L85433 77086
L85405 77058
L85349 77030
L85237 77030
L85180 77058
L85152 77086
L85124 77142
" />
<path d="M86361 77086
L86446 77114
L86474 77142
L86502 77199
L86502 77283
L86474 77339
L86446 77367
L86390 77395
L86165 77395
L86165 76805
L86361 76805
L86418 76833
L86446 76861
L86474 76917
L86474 76974
L86446 77030
L86418 77058
L86361 77086
L86165 77086
" />
<path d="M86699 76805
L87093 76805
L86699 77395
L87093 77395
" />
<path d="M87655 77395
L87458 77114
" />
<path d="M87318 77395
L87318 76805
L87543 76805
L87599 76833
L87627 76861
L87655 76917
L87655 77002
L87627 77058
L87599 77086
L87543 77114
L87318 77114
" />
<path d="M88639 76805
L88358 76805
L88330 77086
L88358 77058
L88414 77030
L88555 77030
L88611 77058
L88639 77086
L88667 77142
L88667 77283
L88639 77339
L88611 77367
L88555 77395
L88414 77395
L88358 77367
L88330 77339
" />
<path d="M88864 76805
L89230 76805
L89033 77030
L89117 77030
L89174 77058
L89202 77086
L89230 77142
L89230 77283
L89202 77339
L89174 77367
L89117 77395
L88949 77395
L88892 77367
L88864 77339
" />
<path d="M89427 76805
L89820 76805
L89567 77395
" />
<path d="M90298 76805
L90186 76805
L90130 76833
L90102 76861
L90045 76946
L90017 77058
L90017 77283
L90045 77339
L90073 77367
L90130 77395
L90242 77395
L90298 77367
L90327 77339
L90355 77283
L90355 77142
L90327 77086
L90298 77058
L90242 77030
L90130 77030
L90073 77058
L90045 77086
L90017 77142
" />
<path d="M90552 77620
L90580 77592
L90636 77508
L90664 77452
L90692 77367
L90720 77227
L90720 77114
L90692 76974
L90664 76889
L90636 76833
L90580 76749
L90552 76721
" />
<path d="M91001 77171
L91451 77171
" />
<path d="M91733 77002
L91733 77592
" />
<path d="M91733 77030
L91789 77002
L91901 77002
L91958 77030
L91986 77058
L92014 77114
L92014 77283
L91986 77339
L91958 77367
L91901 77395
L91789 77395
L91733 77367
" />
<path d="M92267 77395
L92267 77002
" />
<path d="M92267 77114
L92295 77058
L92323 77030
L92379 77002
L92436 77002
" />
<path d="M92717 77395
L92661 77367
L92633 77339
L92604 77283
L92604 77114
L92633 77058
L92661 77030
L92717 77002
L92801 77002
L92858 77030
L92886 77058
L92914 77114
L92914 77283
L92886 77339
L92858 77367
L92801 77395
L92717 77395
" />
<path d="M93420 77395
L93420 76805
" />
<path d="M93420 77367
L93364 77395
L93251 77395
L93195 77367
L93167 77339
L93139 77283
L93139 77114
L93167 77058
L93195 77030
L93251 77002
L93364 77002
L93420 77030
" />
<path d="M93954 77002
L93954 77395
" />
<path d="M93701 77002
L93701 77311
L93729 77367
L93786 77395
L93870 77395
L93926 77367
L93954 77339
" />
<path d="M94489 77367
L94432 77395
L94320 77395
L94264 77367
L94235 77339
L94207 77283
L94207 77114
L94235 77058
L94264 77030
L94320 77002
L94432 77002
L94489 77030
" />
<path d="M94657 77002
L94882 77002
" />
<path d="M94742 76805
L94742 77311
L94770 77367
L94826 77395
L94882 77395
" />
</g>
<g style="fill:#000000; fill-opacity:0.0; 
stroke:#000000; stroke-width:39.3701; stroke-opacity:1; 
stroke-linecap:round; stroke-linejoin:round;">
</g>
<g style="fill:#000000; fill-opacity:0.0; 
stroke:#000000; stroke-width:59.0551; stroke-opacity:1; 
stroke-linecap:round; stroke-linejoin:round;">
<path d="M69685 75396
L112205 75396
" />
</g>
<g style="fill:#000000; fill-opacity:0.0; 
stroke:#000000; stroke-width:39.3701; stroke-opacity:1; 
stroke-linecap:round; stroke-linejoin:round;">
</g>
<g style="fill:#000000; fill-opacity:0.0; 
stroke:#000000; stroke-width:118.11; stroke-opacity:1; 
stroke-linecap:round; stroke-linejoin:round;">
<path d="M104022 76293
L103825 76012
" />
<path d="M103684 76293
L103684 75703
L103909 75703
L103965 75731
L103994 75759
L104022 75815
L104022 75899
L103994 75956
L103965 75984
L103909 76012
L103684 76012
" />
<path d="M104500 76265
L104444 76293
L104331 76293
L104275 76265
L104247 76209
L104247 75984
L104275 75928
L104331 75899
L104444 75899
L104500 75928
L104528 75984
L104528 76040
L104247 76096
" />
<path d="M104725 75899
L104865 76293
L105006 75899
" />
<path d="M105231 76237
L105259 76265
L105231 76293
L105203 76265
L105231 76237
L105231 76293
" />
<path d="M105231 75928
L105259 75956
L105231 75984
L105203 75956
L105231 75928
L105231 75984
" />
<path d="M106271 76293
L105934 76293
" />
<path d="M106103 76293
L106103 75703
L106046 75787
L105990 75843
L105934 75871
" />
<path d="M106525 76237
L106553 76265
L106525 76293
L106496 76265
L106525 76237
L106525 76293
" />
<path d="M106918 75703
L106974 75703
L107031 75731
L107059 75759
L107087 75815
L107115 75928
L107115 76068
L107087 76181
L107059 76237
L107031 76265
L106974 76293
L106918 76293
L106862 76265
L106834 76237
L106806 76181
L106778 76068
L106778 75928
L106806 75815
L106834 75759
L106862 75731
L106918 75703
" />
</g>
<g style="fill:#000000; fill-opacity:0.0; 
stroke:#000000; stroke-width:39.3701; stroke-opacity:1; 
stroke-linecap:round; stroke-linejoin:round;">
</g>
<g style="fill:#000000; fill-opacity:0.0; 
stroke:#000000; stroke-width:59.0551; stroke-opacity:1; 
stroke-linecap:round; stroke-linejoin:round;">
<path d="M70192 76265
L70276 76293
L70417 76293
L70473 76265
L70501 76237
L70529 76181
L70529 76124
L70501 76068
L70473 76040
L70417 76012
L70304 75984
L70248 75956
L70220 75928
L70192 75871
L70192 75815
L70220 75759
L70248 75731
L70304 75703
L70445 75703
L70529 75731
" />
<path d="M70782 76293
L70782 75899
" />
<path d="M70782 75703
L70754 75731
L70782 75759
L70810 75731
L70782 75703
L70782 75759
" />
<path d="M71007 75899
L71316 75899
L71007 76293
L71316 76293
" />
<path d="M71766 76265
L71710 76293
L71598 76293
L71541 76265
L71513 76209
L71513 75984
L71541 75928
L71598 75899
L71710 75899
L71766 75928
L71795 75984
L71795 76040
L71513 76096
" />
<path d="M72048 76237
L72076 76265
L72048 76293
L72019 76265
L72048 76237
L72048 76293
" />
<path d="M72048 75928
L72076 75956
L72048 75984
L72019 75956
L72048 75928
L72048 75984
" />
<path d="M72751 76124
L73032 76124
" />
<path d="M72694 76293
L72891 75703
L73088 76293
" />
<path d="M73538 75899
L73538 76293
" />
<path d="M73397 75674
L73257 76096
L73622 76096
" />
</g>
<g style="fill:#000000; fill-opacity:0.0; 
stroke:#000000; stroke-width:39.3701; stroke-opacity:1; 
stroke-linecap:round; stroke-linejoin:round;">
</g>
<g style="fill:#000000; fill-opacity:0.0; 
stroke:#000000; stroke-width:59.0551; stroke-opacity:1; 
stroke-linecap:round; stroke-linejoin:round;">
<path d="M103684 77395
L103684 76805
" />
<path d="M104219 77395
L104219 76805
" />
<path d="M104219 77367
L104162 77395
L104050 77395
L103994 77367
L103965 77339
L103937 77283
L103937 77114
L103965 77058
L103994 77030
L104050 77002
L104162 77002
L104219 77030
" />
<path d="M104500 77339
L104528 77367
L104500 77395
L104472 77367
L104500 77339
L104500 77395
" />
<path d="M104500 77030
L104528 77058
L104500 77086
L104472 77058
L104500 77030
L104500 77086
" />
<path d="M105540 77395
L105203 77395
" />
<path d="M105372 77395
L105372 76805
L105315 76889
L105259 76946
L105203 76974
" />
<path d="M106215 76777
L105709 77536
" />
<path d="M106721 77395
L106384 77395
" />
<path d="M106553 77395
L106553 76805
L106496 76889
L106440 76946
L106384 76974
" />
</g>
<g style="fill:#000000; fill-opacity:0.0; 
stroke:#000000; stroke-width:39.3701; stroke-opacity:1; 
stroke-linecap:round; stroke-linejoin:round;">
</g>
<g style="fill:#000000; fill-opacity:0.0; 
stroke:#000000; stroke-width:59.0551; stroke-opacity:1; 
stroke-linecap:round; stroke-linejoin:round;">
<path d="M69685 73821
L112205 73821
" />
</g>
<g style="fill:#000000; fill-opacity:0.0; 
stroke:#000000; stroke-width:39.3701; stroke-opacity:1; 
stroke-linecap:round; stroke-linejoin:round;">
</g>
<g style="fill:#000000; fill-opacity:0.0; 
stroke:#000000; stroke-width:157.48; stroke-opacity:1; 
stroke-linecap:round; stroke-linejoin:round;">
<path d="M70257 74099
L70707 74099
" />
<path d="M70384 74886
L70482 74099
" />
<path d="M70871 74886
L70937 74361
" />
<path d="M70970 74099
L70927 74136
L70960 74174
L71002 74136
L70970 74099
L70960 74174
" />
<path d="M71199 74361
L71499 74361
" />
<path d="M71345 74099
L71260 74774
L71288 74849
L71359 74886
L71434 74886
" />
<path d="M71809 74886
L71738 74849
L71710 74774
L71795 74099
" />
<path d="M72413 74849
L72334 74886
L72184 74886
L72113 74849
L72085 74774
L72123 74474
L72169 74399
L72249 74361
L72399 74361
L72469 74399
L72498 74474
L72488 74549
L72104 74624
" />
<path d="M72793 74811
L72826 74849
L72783 74886
L72751 74849
L72793 74811
L72783 74886
" />
<path d="M72844 74399
L72877 74436
L72835 74474
L72802 74436
L72844 74399
L72835 74474
" />
<path d="M73726 74849
L73833 74886
L74021 74886
L74100 74849
L74143 74811
L74190 74736
L74199 74661
L74171 74586
L74138 74549
L74068 74511
L73922 74474
L73852 74436
L73819 74399
L73791 74324
L73801 74249
L73847 74174
L73890 74136
L73969 74099
L74157 74099
L74265 74136
" />
<path d="M74461 74361
L74761 74361
" />
<path d="M74607 74099
L74522 74774
L74550 74849
L74621 74886
L74696 74886
" />
<path d="M74958 74886
L75024 74361
" />
<path d="M75005 74511
L75052 74436
L75094 74399
L75174 74361
L75249 74361
" />
<path d="M75783 74886
L75835 74474
L75807 74399
L75736 74361
L75586 74361
L75507 74399
" />
<path d="M75788 74849
L75708 74886
L75521 74886
L75450 74849
L75422 74774
L75432 74699
L75478 74624
L75558 74586
L75746 74586
L75825 74549
" />
<path d="M76111 74361
L76411 74361
" />
<path d="M76256 74099
L76172 74774
L76200 74849
L76271 74886
L76346 74886
" />
<path d="M76720 74886
L76650 74849
L76617 74811
L76589 74736
L76617 74511
L76664 74436
L76706 74399
L76786 74361
L76899 74361
L76969 74399
L77002 74436
L77030 74511
L77002 74736
L76955 74811
L76913 74849
L76833 74886
L76720 74886
" />
<path d="M77780 74811
L77738 74849
L77620 74886
L77545 74886
L77438 74849
L77372 74774
L77344 74699
L77325 74549
L77339 74436
L77395 74286
L77442 74211
L77527 74136
L77644 74099
L77719 74099
L77827 74136
L77859 74174
" />
<path d="M78445 74886
L78497 74474
L78469 74399
L78398 74361
L78248 74361
L78169 74399
" />
<path d="M78450 74849
L78370 74886
L78183 74886
L78112 74849
L78084 74774
L78094 74699
L78141 74624
L78220 74586
L78408 74586
L78487 74549
" />
<path d="M78773 74361
L79073 74361
" />
<path d="M78919 74099
L78834 74774
L78862 74849
L78933 74886
L79008 74886
" />
<path d="M79237 74849
L79308 74886
L79458 74886
L79537 74849
L79584 74774
L79589 74736
L79561 74661
L79490 74624
L79378 74624
L79308 74586
L79280 74511
L79284 74474
L79331 74399
L79411 74361
L79523 74361
L79594 74399
" />
<path d="M80559 74174
L80601 74136
L80681 74099
L80868 74099
L80939 74136
L80971 74174
L81000 74249
L80990 74324
L80939 74436
L80433 74886
L80920 74886
" />
<path d="M81506 74099
L81581 74099
L81651 74136
L81684 74174
L81712 74249
L81731 74399
L81707 74586
L81651 74736
L81604 74811
L81562 74849
L81482 74886
L81407 74886
L81337 74849
L81304 74811
L81276 74736
L81257 74586
L81281 74399
L81337 74249
L81384 74174
L81426 74136
L81506 74099
" />
<path d="M82420 74886
L81970 74886
" />
<path d="M82195 74886
L82293 74099
L82204 74211
L82120 74286
L82040 74324
" />
<path d="M83231 74099
L82856 74099
L82771 74474
L82813 74436
L82893 74399
L83081 74399
L83151 74436
L83184 74474
L83212 74549
L83188 74736
L83142 74811
L83099 74849
L83020 74886
L82832 74886
L82762 74849
L82729 74811
" />
<path d="M84557 74886
L84341 74511
" />
<path d="M84107 74886
L84205 74099
L84505 74099
L84576 74136
L84609 74174
L84637 74249
L84623 74361
L84576 74436
L84534 74474
L84454 74511
L84154 74511
" />
<path d="M85007 74886
L84937 74849
L84904 74811
L84876 74736
L84904 74511
L84951 74436
L84993 74399
L85073 74361
L85185 74361
L85255 74399
L85288 74436
L85316 74511
L85288 74736
L85241 74811
L85199 74849
L85119 74886
L85007 74886
" />
<path d="M85597 74361
L85719 74886
L85972 74361
" />
<path d="M86511 74849
L86432 74886
L86282 74886
L86211 74849
L86183 74774
L86221 74474
L86268 74399
L86347 74361
L86497 74361
L86568 74399
L86596 74474
L86586 74549
L86202 74624
" />
<path d="M86882 74886
L86947 74361
" />
<path d="M86929 74511
L86975 74436
L87018 74399
L87097 74361
L87172 74361
" />
<path d="M88428 74811
L88386 74849
L88269 74886
L88194 74886
L88086 74849
L88021 74774
L87992 74699
L87974 74549
L87988 74436
L88044 74286
L88091 74211
L88175 74136
L88292 74099
L88367 74099
L88475 74136
L88508 74174
" />
<path d="M88869 74886
L88799 74849
L88766 74811
L88738 74736
L88766 74511
L88813 74436
L88855 74399
L88935 74361
L89047 74361
L89117 74399
L89150 74436
L89178 74511
L89150 74736
L89103 74811
L89061 74849
L88981 74886
L88869 74886
" />
<path d="M89469 74886
L89534 74361
" />
<path d="M89525 74436
L89567 74399
L89647 74361
L89759 74361
L89830 74399
L89858 74474
L89806 74886
" />
<path d="M89858 74474
L89905 74399
L89984 74361
L90097 74361
L90167 74399
L90195 74474
L90144 74886
" />
<path d="M90584 74361
L90486 75149
" />
<path d="M90580 74399
L90659 74361
L90809 74361
L90880 74399
L90912 74436
L90941 74511
L90912 74736
L90866 74811
L90823 74849
L90744 74886
L90594 74886
L90523 74849
" />
<path d="M91536 74849
L91456 74886
L91306 74886
L91236 74849
L91208 74774
L91245 74474
L91292 74399
L91372 74361
L91522 74361
L91592 74399
L91620 74474
L91611 74549
L91226 74624
" />
<path d="M91859 74361
L92159 74361
" />
<path d="M92004 74099
L91920 74774
L91948 74849
L92019 74886
L92094 74886
" />
<path d="M92356 74886
L92422 74361
" />
<path d="M92454 74099
L92412 74136
L92445 74174
L92487 74136
L92454 74099
L92445 74174
" />
<path d="M92684 74361
L92984 74361
" />
<path d="M92829 74099
L92745 74774
L92773 74849
L92843 74886
L92918 74886
" />
<path d="M93181 74886
L93247 74361
" />
<path d="M93279 74099
L93237 74136
L93270 74174
L93312 74136
L93279 74099
L93270 74174
" />
<path d="M93668 74886
L93598 74849
L93565 74811
L93537 74736
L93565 74511
L93612 74436
L93654 74399
L93734 74361
L93846 74361
L93917 74399
L93950 74436
L93978 74511
L93950 74736
L93903 74811
L93861 74849
L93781 74886
L93668 74886
" />
<path d="M94334 74361
L94268 74886
" />
<path d="M94325 74436
L94367 74399
L94446 74361
L94559 74361
L94629 74399
L94657 74474
L94606 74886
" />
<path d="M95548 74849
L95656 74886
L95843 74886
L95923 74849
L95965 74811
L96012 74736
L96021 74661
L95993 74586
L95960 74549
L95890 74511
L95745 74474
L95674 74436
L95642 74399
L95613 74324
L95623 74249
L95670 74174
L95712 74136
L95792 74099
L95979 74099
L96087 74136
" />
<path d="M96443 74886
L96373 74849
L96340 74811
L96312 74736
L96340 74511
L96387 74436
L96429 74399
L96509 74361
L96621 74361
L96691 74399
L96724 74436
L96752 74511
L96724 74736
L96677 74811
L96635 74849
L96555 74886
L96443 74886
" />
<path d="M97155 74886
L97085 74849
L97057 74774
L97141 74099
" />
<path d="M97760 74849
L97680 74886
L97530 74886
L97460 74849
L97432 74774
L97469 74474
L97516 74399
L97596 74361
L97746 74361
L97816 74399
L97844 74474
L97835 74549
L97451 74624
" />
<path d="M98196 74361
L98130 74886
" />
<path d="M98187 74436
L98229 74399
L98308 74361
L98421 74361
L98491 74399
L98519 74474
L98468 74886
" />
<path d="M98955 74886
L98885 74849
L98852 74811
L98824 74736
L98852 74511
L98899 74436
L98941 74399
L99021 74361
L99133 74361
L99204 74399
L99236 74436
L99265 74511
L99236 74736
L99190 74811
L99147 74849
L99068 74886
L98955 74886
" />
<path d="M99555 74886
L99621 74361
" />
<path d="M99654 74099
L99611 74136
L99644 74174
L99686 74136
L99654 74099
L99644 74174
" />
<path d="M100268 74886
L100366 74099
" />
<path d="M100272 74849
L100193 74886
L100043 74886
L99972 74849
L99939 74811
L99911 74736
L99939 74511
L99986 74436
L100028 74399
L100108 74361
L100258 74361
L100328 74399
" />
<path d="M101242 74886
L101341 74099
L101528 74099
L101636 74136
L101702 74211
L101730 74286
L101749 74436
L101735 74549
L101678 74699
L101631 74774
L101547 74849
L101430 74886
L101242 74886
" />
<path d="M102030 74886
L102095 74361
" />
<path d="M102077 74511
L102124 74436
L102166 74399
L102245 74361
L102320 74361
" />
<path d="M102517 74886
L102583 74361
" />
<path d="M102616 74099
L102573 74136
L102606 74174
L102648 74136
L102616 74099
L102606 74174
" />
<path d="M102883 74361
L103005 74886
L103258 74361
" />
<path d="M103797 74849
L103717 74886
L103567 74886
L103497 74849
L103469 74774
L103506 74474
L103553 74399
L103633 74361
L103783 74361
L103853 74399
L103881 74474
L103872 74549
L103487 74624
" />
<path d="M104167 74886
L104233 74361
" />
<path d="M104214 74511
L104261 74436
L104303 74399
L104383 74361
L104458 74361
" />
<path d="M105254 74886
L105353 74099
L105540 74099
L105648 74136
L105714 74211
L105742 74286
L105761 74436
L105747 74549
L105690 74699
L105643 74774
L105559 74849
L105442 74886
L105254 74886
" />
<path d="M106346 74849
L106267 74886
L106117 74886
L106046 74849
L106018 74774
L106056 74474
L106103 74399
L106182 74361
L106332 74361
L106403 74399
L106431 74474
L106421 74549
L106037 74624
" />
<path d="M106684 74849
L106754 74886
L106904 74886
L106984 74849
L107031 74774
L107035 74736
L107007 74661
L106937 74624
L106825 74624
L106754 74586
L106726 74511
L106731 74474
L106778 74399
L106857 74361
L106970 74361
L107040 74399
" />
<path d="M107354 74886
L107420 74361
" />
<path d="M107453 74099
L107410 74136
L107443 74174
L107485 74136
L107453 74099
L107443 74174
" />
<path d="M108132 74361
L108052 74999
L108006 75074
L107963 75111
L107884 75149
L107771 75149
L107701 75111
" />
<path d="M108071 74849
L107992 74886
L107842 74886
L107771 74849
L107738 74811
L107710 74736
L107738 74511
L107785 74436
L107828 74399
L107907 74361
L108057 74361
L108127 74399
" />
<path d="M108507 74361
L108442 74886
" />
<path d="M108498 74436
L108540 74399
L108620 74361
L108732 74361
L108802 74399
L108831 74474
L108779 74886
" />
</g>
<g style="fill:#000000; fill-opacity:0.0; 
stroke:#000000; stroke-width:39.3701; stroke-opacity:1; 
stroke-linecap:round; stroke-linejoin:round;">
</g>
<g style="fill:#000000; fill-opacity:0.0; 
stroke:#000000; stroke-width:59.0551; stroke-opacity:1; 
stroke-linecap:round; stroke-linejoin:round;">
<path d="M70417 73070
L70220 73070
" />
<path d="M70220 73380
L70220 72789
L70501 72789
" />
<path d="M70726 73380
L70726 72986
" />
<path d="M70726 72789
L70698 72817
L70726 72845
L70754 72817
L70726 72789
L70726 72845
" />
<path d="M71091 73380
L71035 73352
L71007 73295
L71007 72789
" />
<path d="M71541 73352
L71485 73380
L71373 73380
L71316 73352
L71288 73295
L71288 73070
L71316 73014
L71373 72986
L71485 72986
L71541 73014
L71570 73070
L71570 73127
L71288 73183
" />
<path d="M71823 73323
L71851 73352
L71823 73380
L71795 73352
L71823 73323
L71823 73380
" />
<path d="M71823 73014
L71851 73042
L71823 73070
L71795 73042
L71823 73014
L71823 73070
" />
<path d="M72554 73380
L72554 72986
" />
<path d="M72554 73099
L72582 73042
L72610 73014
L72666 72986
L72723 72986
" />
<path d="M73004 73380
L72947 73352
L72919 73323
L72891 73267
L72891 73099
L72919 73042
L72947 73014
L73004 72986
L73088 72986
L73144 73014
L73172 73042
L73201 73099
L73201 73267
L73172 73323
L73144 73352
L73088 73380
L73004 73380
" />
<path d="M73397 72986
L73538 73380
L73679 72986
" />
<path d="M74129 73352
L74072 73380
L73960 73380
L73904 73352
L73876 73295
L73876 73070
L73904 73014
L73960 72986
L74072 72986
L74129 73014
L74157 73070
L74157 73127
L73876 73183
" />
<path d="M74410 73380
L74410 72986
" />
<path d="M74410 73099
L74438 73042
L74466 73014
L74522 72986
L74579 72986
" />
<path d="M74775 73323
L74804 73352
L74775 73380
L74747 73352
L74775 73323
L74775 73380
" />
<path d="M75057 73380
L75057 72789
" />
<path d="M75113 73155
L75282 73380
" />
<path d="M75282 72986
L75057 73211
" />
<path d="M75535 73380
L75535 72986
" />
<path d="M75535 72789
L75507 72817
L75535 72845
L75563 72817
L75535 72789
L75535 72845
" />
<path d="M76069 73352
L76013 73380
L75900 73380
L75844 73352
L75816 73323
L75788 73267
L75788 73099
L75816 73042
L75844 73014
L75900 72986
L76013 72986
L76069 73014
" />
<path d="M76575 73380
L76575 73070
L76547 73014
L76491 72986
L76378 72986
L76322 73014
" />
<path d="M76575 73352
L76519 73380
L76378 73380
L76322 73352
L76294 73295
L76294 73239
L76322 73183
L76378 73155
L76519 73155
L76575 73127
" />
<path d="M77109 73380
L77109 72789
" />
<path d="M77109 73352
L77053 73380
L76941 73380
L76885 73352
L76856 73323
L76828 73267
L76828 73099
L76856 73042
L76885 73014
L76941 72986
L77053 72986
L77109 73014
" />
<path d="M77250 73436
L77700 73436
" />
<path d="M77841 72986
L77841 73577
" />
<path d="M77841 73014
L77897 72986
L78009 72986
L78066 73014
L78094 73042
L78122 73099
L78122 73267
L78094 73323
L78066 73352
L78009 73380
L77897 73380
L77841 73352
" />
<path d="M78628 73352
L78572 73380
L78459 73380
L78403 73352
L78375 73323
L78347 73267
L78347 73099
L78375 73042
L78403 73014
L78459 72986
L78572 72986
L78628 73014
" />
<path d="M78881 73380
L78881 72789
" />
<path d="M78881 73014
L78937 72986
L79050 72986
L79106 73014
L79134 73042
L79162 73099
L79162 73267
L79134 73323
L79106 73352
L79050 73380
L78937 73380
L78881 73352
" />
</g>
<g style="fill:#000000; fill-opacity:0.0; 
stroke:#000000; stroke-width:39.3701; stroke-opacity:1; 
stroke-linecap:round; stroke-linejoin:round;">
</g>
<g style="fill:#000000; fill-opacity:0.0; 
stroke:#000000; stroke-width:59.0551; stroke-opacity:1; 
stroke-linecap:round; stroke-linejoin:round;">
<path d="M69685 71459
L112205 71459
" />
</g>
<g style="fill:#000000; fill-opacity:0.0; 
stroke:#000000; stroke-width:39.3701; stroke-opacity:1; 
stroke-linecap:round; stroke-linejoin:round;">
</g>
<g style="fill:#000000; fill-opacity:0.0; 
stroke:#000000; stroke-width:59.0551; stroke-opacity:1; 
stroke-linecap:round; stroke-linejoin:round;">
<path d="M70192 72289
L70276 72317
L70417 72317
L70473 72289
L70501 72260
L70529 72204
L70529 72148
L70501 72092
L70473 72064
L70417 72036
L70304 72007
L70248 71979
L70220 71951
L70192 71895
L70192 71839
L70220 71782
L70248 71754
L70304 71726
L70445 71726
L70529 71754
" />
<path d="M70782 72317
L70782 71726
" />
<path d="M71035 72317
L71035 72007
L71007 71951
L70951 71923
L70867 71923
L70810 71951
L70782 71979
" />
<path d="M71541 72289
L71485 72317
L71373 72317
L71316 72289
L71288 72232
L71288 72007
L71316 71951
L71373 71923
L71485 71923
L71541 71951
L71570 72007
L71570 72064
L71288 72120
" />
<path d="M72048 72289
L71991 72317
L71879 72317
L71823 72289
L71795 72232
L71795 72007
L71823 71951
L71879 71923
L71991 71923
L72048 71951
L72076 72007
L72076 72064
L71795 72120
" />
<path d="M72244 71923
L72469 71923
" />
<path d="M72329 71726
L72329 72232
L72357 72289
L72413 72317
L72469 72317
" />
<path d="M72666 72260
L72694 72289
L72666 72317
L72638 72289
L72666 72260
L72666 72317
" />
<path d="M72666 71951
L72694 71979
L72666 72007
L72638 71979
L72666 71951
L72666 72007
" />
</g>
<g style="fill:#000000; fill-opacity:0.0; 
stroke:#000000; stroke-width:39.3701; stroke-opacity:1; 
stroke-linecap:round; stroke-linejoin:round;">
</g>
<g style="fill:#000000; fill-opacity:0.0; 
stroke:#000000; stroke-width:118.11; stroke-opacity:1; 
stroke-linecap:round; stroke-linejoin:round;">
<path d="M70220 70545
L70220 71023
L70248 71079
L70276 71108
L70332 71136
L70445 71136
L70501 71108
L70529 71079
L70557 71023
L70557 70545
" />
<path d="M71176 71079
L71148 71108
L71063 71136
L71007 71136
L70923 71108
L70867 71051
L70838 70995
L70810 70883
L70810 70798
L70838 70686
L70867 70629
L70923 70573
L71007 70545
L71063 70545
L71148 70573
L71176 70601
" />
<path d="M71851 71108
L71935 71136
L72076 71136
L72132 71108
L72160 71079
L72188 71023
L72188 70967
L72160 70911
L72132 70883
L72076 70854
L71963 70826
L71907 70798
L71879 70770
L71851 70714
L71851 70658
L71879 70601
L71907 70573
L71963 70545
L72104 70545
L72188 70573
" />
<path d="M72357 70742
L72582 70742
" />
<path d="M72441 70545
L72441 71051
L72469 71108
L72526 71136
L72582 71136
" />
<path d="M72779 71136
L72779 70742
" />
<path d="M72779 70854
L72807 70798
L72835 70770
L72891 70742
L72947 70742
" />
<path d="M73397 71136
L73397 70826
L73369 70770
L73313 70742
L73201 70742
L73144 70770
" />
<path d="M73397 71108
L73341 71136
L73201 71136
L73144 71108
L73116 71051
L73116 70995
L73144 70939
L73201 70911
L73341 70911
L73397 70883
" />
<path d="M73594 70742
L73819 70742
" />
<path d="M73679 70545
L73679 71051
L73707 71108
L73763 71136
L73819 71136
" />
<path d="M74100 71136
L74044 71108
L74016 71079
L73988 71023
L73988 70854
L74016 70798
L74044 70770
L74100 70742
L74185 70742
L74241 70770
L74269 70798
L74297 70854
L74297 71023
L74269 71079
L74241 71108
L74185 71136
L74100 71136
" />
<path d="M74888 71079
L74860 71108
L74775 71136
L74719 71136
L74635 71108
L74579 71051
L74550 70995
L74522 70883
L74522 70798
L74550 70686
L74579 70629
L74635 70573
L74719 70545
L74775 70545
L74860 70573
L74888 70601
" />
<path d="M75394 71136
L75394 70826
L75366 70770
L75310 70742
L75197 70742
L75141 70770
" />
<path d="M75394 71108
L75338 71136
L75197 71136
L75141 71108
L75113 71051
L75113 70995
L75141 70939
L75197 70911
L75338 70911
L75394 70883
" />
<path d="M75591 70742
L75816 70742
" />
<path d="M75675 70545
L75675 71051
L75703 71108
L75760 71136
L75816 71136
" />
<path d="M75985 71108
L76041 71136
L76153 71136
L76210 71108
L76238 71051
L76238 71023
L76210 70967
L76153 70939
L76069 70939
L76013 70911
L75985 70854
L75985 70826
L76013 70770
L76069 70742
L76153 70742
L76210 70770
" />
</g>
<g style="fill:#000000; fill-opacity:0.0; 
stroke:#000000; stroke-width:39.3701; stroke-opacity:1; 
stroke-linecap:round; stroke-linejoin:round;">
</g>
<g style="fill:#000000; fill-opacity:0.0; 
stroke:#000000; stroke-width:59.0551; stroke-opacity:1; 
stroke-linecap:round; stroke-linejoin:round;">
<path d="M77559 75396
L77559 76577
" />
</g>
<g style="fill:#000000; fill-opacity:0.0; 
stroke:#000000; stroke-width:39.3701; stroke-opacity:1; 
stroke-linecap:round; stroke-linejoin:round;">
</g>
<g style="fill:#000000; fill-opacity:0.0; 
stroke:#000000; stroke-width:59.0551; stroke-opacity:1; 
stroke-linecap:round; stroke-linejoin:round;">
<path d="M102756 75396
L102756 77955
" />
</g>
<g style="fill:#840084; fill-opacity:0.0; 
stroke:#840084; stroke-width:118.11; stroke-opacity:1; 
stroke-linecap:round; stroke-linejoin:round;">
<path d="M36058 38267
L36058 37676
L36283 37676
L36339 37704
L36367 37732
L36395 37789
L36395 37873
L36367 37929
L36339 37957
L36283 37985
L36058 37985
" />
<path d="M36733 38267
L36677 38239
L36649 38210
L36620 38154
L36620 37985
L36649 37929
L36677 37901
L36733 37873
L36817 37873
L36874 37901
L36902 37929
L36930 37985
L36930 38154
L36902 38210
L36874 38239
L36817 38267
L36733 38267
" />
<path d="M37127 37873
L37239 38267
L37352 37985
L37464 38267
L37577 37873
" />
<path d="M38026 38239
L37970 38267
L37858 38267
L37802 38239
L37773 38182
L37773 37957
L37802 37901
L37858 37873
L37970 37873
L38026 37901
L38055 37957
L38055 38014
L37773 38070
" />
<path d="M38308 38267
L38308 37873
" />
<path d="M38308 37985
L38336 37929
L38364 37901
L38420 37873
L38476 37873
" />
<path d="M39123 38267
L39123 37676
L39264 37676
L39348 37704
L39404 37760
L39433 37817
L39461 37929
L39461 38014
L39433 38126
L39404 38182
L39348 38239
L39264 38267
L39123 38267
" />
<path d="M39714 38267
L39714 37873
" />
<path d="M39714 37676
L39686 37704
L39714 37732
L39742 37704
L39714 37676
L39714 37732
" />
<path d="M39967 38239
L40023 38267
L40136 38267
L40192 38239
L40220 38182
L40220 38154
L40192 38098
L40136 38070
L40051 38070
L39995 38042
L39967 37985
L39967 37957
L39995 37901
L40051 37873
L40136 37873
L40192 37901
" />
<path d="M40389 37873
L40614 37873
" />
<path d="M40473 37676
L40473 38182
L40501 38239
L40557 38267
L40614 38267
" />
<path d="M40811 38267
L40811 37873
" />
<path d="M40811 37985
L40839 37929
L40867 37901
L40923 37873
L40979 37873
" />
<path d="M41176 38267
L41176 37873
" />
<path d="M41176 37676
L41148 37704
L41176 37732
L41204 37704
L41176 37676
L41176 37732
" />
<path d="M41457 38267
L41457 37676
" />
<path d="M41457 37901
L41514 37873
L41626 37873
L41682 37901
L41710 37929
L41739 37985
L41739 38154
L41710 38210
L41682 38239
L41626 38267
L41514 38267
L41457 38239
" />
<path d="M42245 37873
L42245 38267
" />
<path d="M41992 37873
L41992 38182
L42020 38239
L42076 38267
L42160 38267
L42217 38239
L42245 38210
" />
<path d="M42442 37873
L42667 37873
" />
<path d="M42526 37676
L42526 38182
L42554 38239
L42610 38267
L42667 38267
" />
<path d="M42863 38267
L42863 37873
" />
<path d="M42863 37676
L42835 37704
L42863 37732
L42892 37704
L42863 37676
L42863 37732
" />
<path d="M43229 38267
L43173 38239
L43145 38210
L43116 38154
L43116 37985
L43145 37929
L43173 37901
L43229 37873
L43313 37873
L43370 37901
L43398 37929
L43426 37985
L43426 38154
L43398 38210
L43370 38239
L43313 38267
L43229 38267
" />
<path d="M43679 37873
L43679 38267
" />
<path d="M43679 37929
L43707 37901
L43763 37873
L43848 37873
L43904 37901
L43932 37957
L43932 38267
" />
<path d="M44860 37957
L44944 37985
L44973 38014
L45001 38070
L45001 38154
L44973 38210
L44944 38239
L44888 38267
L44663 38267
L44663 37676
L44860 37676
L44916 37704
L44944 37732
L44973 37789
L44973 37845
L44944 37901
L44916 37929
L44860 37957
L44663 37957
" />
<path d="M45338 38267
L45282 38239
L45254 38210
L45226 38154
L45226 37985
L45254 37929
L45282 37901
L45338 37873
L45422 37873
L45479 37901
L45507 37929
L45535 37985
L45535 38154
L45507 38210
L45479 38239
L45422 38267
L45338 38267
" />
<path d="M46041 38267
L46041 37957
L46013 37901
L45957 37873
L45844 37873
L45788 37901
" />
<path d="M46041 38239
L45985 38267
L45844 38267
L45788 38239
L45760 38182
L45760 38126
L45788 38070
L45844 38042
L45985 38042
L46041 38014
" />
<path d="M46322 38267
L46322 37873
" />
<path d="M46322 37985
L46350 37929
L46379 37901
L46435 37873
L46491 37873
" />
<path d="M46941 38267
L46941 37676
" />
<path d="M46941 38239
L46885 38267
L46772 38267
L46716 38239
L46688 38210
L46660 38154
L46660 37985
L46688 37929
L46716 37901
L46772 37873
L46885 37873
L46941 37901
" />
</g>
<g style="fill:#840084; fill-opacity:0.0; 
stroke:#840084; stroke-width:78.7402; stroke-opacity:1; 
stroke-linecap:round; stroke-linejoin:round;">
<path d="M31000 40000
L52000 40000
" />
<path d="M31000 64000
L31000 40000
" />
<path d="M52000 64000
L31000 64000
" />
<path d="M52000 40000
L52000 64000
" />
</g>
<g style="fill:#840084; fill-opacity:0.0; 
stroke:#840084; stroke-width:118.11; stroke-opacity:1; 
stroke-linecap:round; stroke-linejoin:round;">
<path d="M34705 9239
L34789 9267
L34930 9267
L34986 9239
L35014 9210
L35042 9154
L35042 9098
L35014 9042
L34986 9014
L34930 8985
L34817 8957
L34761 8929
L34733 8901
L34705 8845
L34705 8789
L34733 8732
L34761 8704
L34817 8676
L34958 8676
L35042 8704
" />
<path d="M35380 9267
L35323 9239
L35295 9210
L35267 9154
L35267 8985
L35295 8929
L35323 8901
L35380 8873
L35464 8873
L35520 8901
L35548 8929
L35577 8985
L35577 9154
L35548 9210
L35520 9239
L35464 9267
L35380 9267
" />
<path d="M35914 9267
L35858 9239
L35830 9182
L35830 8676
" />
<path d="M36364 9239
L36308 9267
L36195 9267
L36139 9239
L36111 9182
L36111 8957
L36139 8901
L36195 8873
L36308 8873
L36364 8901
L36392 8957
L36392 9014
L36111 9070
" />
<path d="M36645 8873
L36645 9267
" />
<path d="M36645 8929
L36673 8901
L36730 8873
L36814 8873
L36870 8901
L36898 8957
L36898 9267
" />
<path d="M37264 9267
L37208 9239
L37179 9210
L37151 9154
L37151 8985
L37179 8929
L37208 8901
L37264 8873
L37348 8873
L37404 8901
L37433 8929
L37461 8985
L37461 9154
L37433 9210
L37404 9239
L37348 9267
L37264 9267
" />
<path d="M37714 9267
L37714 8873
" />
<path d="M37714 8676
L37686 8704
L37714 8732
L37742 8704
L37714 8676
L37714 8732
" />
<path d="M38248 9267
L38248 8676
" />
<path d="M38248 9239
L38192 9267
L38079 9267
L38023 9239
L37995 9210
L37967 9154
L37967 8985
L37995 8929
L38023 8901
L38079 8873
L38192 8873
L38248 8901
" />
<path d="M38979 9267
L38979 8676
L39120 8676
L39204 8704
L39260 8760
L39289 8817
L39317 8929
L39317 9014
L39289 9126
L39260 9182
L39204 9239
L39120 9267
L38979 9267
" />
<path d="M39570 9267
L39570 8873
" />
<path d="M39570 8985
L39598 8929
L39626 8901
L39682 8873
L39739 8873
" />
<path d="M39935 9267
L39935 8873
" />
<path d="M39935 8676
L39907 8704
L39935 8732
L39964 8704
L39935 8676
L39935 8732
" />
<path d="M40160 8873
L40301 9267
L40442 8873
" />
<path d="M40892 9239
L40835 9267
L40723 9267
L40667 9239
L40638 9182
L40638 8957
L40667 8901
L40723 8873
L40835 8873
L40892 8901
L40920 8957
L40920 9014
L40638 9070
" />
<path d="M41173 9267
L41173 8873
" />
<path d="M41173 8985
L41201 8929
L41229 8901
L41285 8873
L41341 8873
" />
<path d="M42185 8957
L42269 8985
L42298 9014
L42326 9070
L42326 9154
L42298 9210
L42269 9239
L42213 9267
L41988 9267
L41988 8676
L42185 8676
L42241 8704
L42269 8732
L42298 8789
L42298 8845
L42269 8901
L42241 8929
L42185 8957
L41988 8957
" />
<path d="M42663 9267
L42607 9239
L42579 9210
L42551 9154
L42551 8985
L42579 8929
L42607 8901
L42663 8873
L42748 8873
L42804 8901
L42832 8929
L42860 8985
L42860 9154
L42832 9210
L42804 9239
L42748 9267
L42663 9267
" />
<path d="M43366 9267
L43366 8957
L43338 8901
L43282 8873
L43169 8873
L43113 8901
" />
<path d="M43366 9239
L43310 9267
L43169 9267
L43113 9239
L43085 9182
L43085 9126
L43113 9070
L43169 9042
L43310 9042
L43366 9014
" />
<path d="M43647 9267
L43647 8873
" />
<path d="M43647 8985
L43676 8929
L43704 8901
L43760 8873
L43816 8873
" />
<path d="M44266 9267
L44266 8676
" />
<path d="M44266 9239
L44210 9267
L44097 9267
L44041 9239
L44013 9210
L43985 9154
L43985 8985
L44013 8929
L44041 8901
L44097 8873
L44210 8873
L44266 8901
" />
</g>
<g style="fill:#840084; fill-opacity:0.0; 
stroke:#840084; stroke-width:78.7402; stroke-opacity:1; 
stroke-linecap:round; stroke-linejoin:round;">
<path d="M60500 31500
L19000 31500
" />
<path d="M19000 11000
L19000 31500
" />
<path d="M60500 11000
L60500 31500
" />
<path d="M19000 11000
L60500 11000
" />
</g>
<g style="fill:#008484; fill-opacity:0.0; 
stroke:#008484; stroke-width:118.11; stroke-opacity:1; 
stroke-linecap:round; stroke-linejoin:round;">
<path d="M32212 62267
L31875 62267
" />
<path d="M32043 62267
L32043 61676
L31987 61760
L31931 61817
L31875 61845
" />
<path d="M32775 62267
L32437 62267
" />
<path d="M32606 62267
L32606 61676
L32550 61760
L32493 61817
L32437 61845
" />
<path d="M33028 62210
L33056 62239
L33028 62267
L33000 62239
L33028 62210
L33028 62267
" />
<path d="M33618 62267
L33281 62267
" />
<path d="M33449 62267
L33449 61676
L33393 61760
L33337 61817
L33281 61845
" />
<path d="M33787 61676
L33984 62267
L34181 61676
" />
<path d="M33887 56176
L33606 56176
L33578 56457
L33606 56429
L33662 56401
L33803 56401
L33859 56429
L33887 56457
L33915 56514
L33915 56654
L33887 56710
L33859 56739
L33803 56767
L33662 56767
L33606 56739
L33578 56710
" />
<path d="M34084 56176
L34281 56767
L34478 56176
" />
<path d="M32628 49676
L32993 49676
L32796 49901
L32881 49901
L32937 49929
L32965 49957
L32993 50014
L32993 50154
L32965 50210
L32937 50239
L32881 50267
L32712 50267
L32656 50239
L32628 50210
" />
<path d="M33246 50210
L33275 50239
L33246 50267
L33218 50239
L33246 50210
L33246 50267
" />
<path d="M33471 49676
L33837 49676
L33640 49901
L33724 49901
L33781 49929
L33809 49957
L33837 50014
L33837 50154
L33809 50210
L33781 50239
L33724 50267
L33556 50267
L33500 50239
L33471 50210
" />
<path d="M34006 49676
L34203 50267
L34399 49676
" />
<path d="M33120 43204
L33064 43176
L32979 43176
L32895 43204
L32839 43260
L32811 43317
L32782 43429
L32782 43514
L32811 43626
L32839 43682
L32895 43739
L32979 43767
L33035 43767
L33120 43739
L33148 43710
L33148 43514
L33035 43514
" />
<path d="M33401 43373
L33401 43767
" />
<path d="M33401 43429
L33429 43401
L33485 43373
L33570 43373
L33626 43401
L33654 43457
L33654 43767
" />
<path d="M34188 43767
L34188 43176
" />
<path d="M34188 43739
L34132 43767
L34020 43767
L33964 43739
L33935 43710
L33907 43654
L33907 43485
L33935 43429
L33964 43401
L34020 43373
L34132 43373
L34188 43401
" />
</g>
<g style="fill:#008484; fill-opacity:0.0; 
stroke:#008484; stroke-width:59.0551; stroke-opacity:1; 
stroke-linecap:round; stroke-linejoin:round;">
<path d="M25000 20000
L25000 22000
" />
<path d="M25000 22000
L24000 22000
" />
<path d="M24000 22000
L24000 20000
" />
<path d="M24000 20000
L25000 20000
" />
<path d="M24500 20000
L24500 19500
" />
<path d="M24500 22000
L24500 22500
" />
<path d="M36610 55389
L36610 56000
" />
<path d="M35389 56000
L35389 55389
" />
<path d="M35389 55389
L36610 55389
" />
<path d="M35500 56500
L36500 56500
" />
<path d="M38610 55389
L38610 56000
" />
<path d="M37389 56000
L37389 55389
" />
<path d="M37389 55389
L38610 55389
" />
<path d="M37500 56500
L38500 56500
" />
<path d="M42610 55389
L42610 56000
" />
<path d="M41389 56000
L41389 55389
" />
<path d="M41389 55389
L42610 55389
" />
<path d="M41500 56500
L42500 56500
" />
<path d="M40610 55389
L40610 56000
" />
<path d="M39389 56000
L39389 55389
" />
<path d="M39389 55389
L40610 55389
" />
<path d="M39500 56500
L40500 56500
" />
<path d="M48610 55389
L48610 56000
" />
<path d="M47389 56000
L47389 55389
" />
<path d="M47389 55389
L48610 55389
" />
<path d="M47500 56500
L48500 56500
" />
<path d="M50610 55389
L50610 56000
" />
<path d="M49389 56000
L49389 55389
" />
<path d="M49389 55389
L50610 55389
" />
<path d="M49500 56500
L50500 56500
" />
<path d="M46610 55389
L46610 56000
" />
<path d="M45389 56000
L45389 55389
" />
<path d="M45389 55389
L46610 55389
" />
<path d="M45500 56500
L46500 56500
" />
<path d="M44610 55389
L44610 56000
" />
<path d="M43389 56000
L43389 55389
" />
<path d="M43389 55389
L44610 55389
" />
<path d="M43500 56500
L44500 56500
" />
<path d="M44610 49389
L44610 50000
" />
<path d="M43389 50000
L43389 49389
" />
<path d="M43389 49389
L44610 49389
" />
<path d="M43500 50500
L44500 50500
" />
<path d="M46610 49389
L46610 50000
" />
<path d="M45389 50000
L45389 49389
" />
<path d="M45389 49389
L46610 49389
" />
<path d="M45500 50500
L46500 50500
" />
<path d="M50610 49389
L50610 50000
" />
<path d="M49389 50000
L49389 49389
" />
<path d="M49389 49389
L50610 49389
" />
<path d="M49500 50500
L50500 50500
" />
<path d="M48610 49389
L48610 50000
" />
<path d="M47389 50000
L47389 49389
" />
<path d="M47389 49389
L48610 49389
" />
<path d="M47500 50500
L48500 50500
" />
<path d="M40610 49389
L40610 50000
" />
<path d="M39389 50000
L39389 49389
" />
<path d="M39389 49389
L40610 49389
" />
<path d="M39500 50500
L40500 50500
" />
<path d="M42610 49389
L42610 50000
" />
<path d="M41389 50000
L41389 49389
" />
<path d="M41389 49389
L42610 49389
" />
<path d="M41500 50500
L42500 50500
" />
<path d="M38610 49389
L38610 50000
" />
<path d="M37389 50000
L37389 49389
" />
<path d="M37389 49389
L38610 49389
" />
<path d="M37500 50500
L38500 50500
" />
<path d="M36610 49389
L36610 50000
" />
<path d="M35389 50000
L35389 49389
" />
<path d="M35389 49389
L36610 49389
" />
<path d="M35500 50500
L36500 50500
" />
<path d="M36610 61389
L36610 62000
" />
<path d="M35389 62000
L35389 61389
" />
<path d="M35389 61389
L36610 61389
" />
<path d="M35500 62500
L36500 62500
" />
<path d="M38610 61389
L38610 62000
" />
<path d="M37389 62000
L37389 61389
" />
<path d="M37389 61389
L38610 61389
" />
<path d="M37500 62500
L38500 62500
" />
<path d="M42610 61389
L42610 62000
" />
<path d="M41389 62000
L41389 61389
" />
<path d="M41389 61389
L42610 61389
" />
<path d="M41500 62500
L42500 62500
" />
<path d="M40610 61389
L40610 62000
" />
<path d="M39389 62000
L39389 61389
" />
<path d="M39389 61389
L40610 61389
" />
<path d="M39500 62500
L40500 62500
" />
<path d="M48610 61389
L48610 62000
" />
<path d="M47389 62000
L47389 61389
" />
<path d="M47389 61389
L48610 61389
" />
<path d="M47500 62500
L48500 62500
" />
<path d="M50610 61389
L50610 62000
" />
<path d="M49389 62000
L49389 61389
" />
<path d="M49389 61389
L50610 61389
" />
<path d="M49500 62500
L50500 62500
" />
<path d="M46610 61389
L46610 62000
" />
<path d="M45389 62000
L45389 61389
" />
<path d="M45389 61389
L46610 61389
" />
<path d="M45500 62500
L46500 62500
" />
<path d="M44610 61389
L44610 62000
" />
<path d="M43389 62000
L43389 61389
" />
<path d="M43389 61389
L44610 61389
" />
<path d="M43500 62500
L44500 62500
" />
<path d="M36610 43389
L36610 44000
" />
<path d="M35389 44000
L35389 43389
" />
<path d="M35389 43389
L36610 43389
" />
<path d="M35500 44500
L36500 44500
" />
<path d="M38610 43389
L38610 44000
" />
<path d="M37389 44000
L37389 43389
" />
<path d="M37389 43389
L38610 43389
" />
<path d="M37500 44500
L38500 44500
" />
<path d="M42610 43389
L42610 44000
" />
<path d="M41389 44000
L41389 43389
" />
<path d="M41389 43389
L42610 43389
" />
<path d="M41500 44500
L42500 44500
" />
<path d="M40610 43389
L40610 44000
" />
<path d="M39389 44000
L39389 43389
" />
<path d="M39389 43389
L40610 43389
" />
<path d="M39500 44500
L40500 44500
" />
<path d="M48610 43389
L48610 44000
" />
<path d="M47389 44000
L47389 43389
" />
<path d="M47389 43389
L48610 43389
" />
<path d="M47500 44500
L48500 44500
" />
<path d="M50610 43389
L50610 44000
" />
<path d="M49389 44000
L49389 43389
" />
<path d="M49389 43389
L50610 43389
" />
<path d="M49500 44500
L50500 44500
" />
<path d="M46610 43389
L46610 44000
" />
<path d="M45389 44000
L45389 43389
" />
<path d="M45389 43389
L46610 43389
" />
<path d="M45500 44500
L46500 44500
" />
<path d="M44610 43389
L44610 44000
" />
<path d="M43389 44000
L43389 43389
" />
<path d="M43389 43389
L44610 43389
" />
<path d="M43500 44500
L44500 44500
" />
<path d="M44610 41389
L44610 42000
" />
<path d="M43389 42000
L43389 41389
" />
<path d="M43389 41389
L44610 41389
" />
<path d="M43500 42500
L44500 42500
" />
<path d="M46610 41389
L46610 42000
" />
<path d="M45389 42000
L45389 41389
" />
<path d="M45389 41389
L46610 41389
" />
<path d="M45500 42500
L46500 42500
" />
<path d="M50610 41389
L50610 42000
" />
<path d="M49389 42000
L49389 41389
" />
<path d="M49389 41389
L50610 41389
" />
<path d="M49500 42500
L50500 42500
" />
<path d="M48610 41389
L48610 42000
" />
<path d="M47389 42000
L47389 41389
" />
<path d="M47389 41389
L48610 41389
" />
<path d="M47500 42500
L48500 42500
" />
<path d="M40610 41389
L40610 42000
" />
<path d="M39389 42000
L39389 41389
" />
<path d="M39389 41389
L40610 41389
" />
<path d="M39500 42500
L40500 42500
" />
<path d="M42610 41389
L42610 42000
" />
<path d="M41389 42000
L41389 41389
" />
<path d="M41389 41389
L42610 41389
" />
<path d="M41500 42500
L42500 42500
" />
<path d="M38610 41389
L38610 42000
" />
<path d="M37389 42000
L37389 41389
" />
<path d="M37389 41389
L38610 41389
" />
<path d="M37500 42500
L38500 42500
" />
<path d="M51400 14800
L51400 15250
" />
<path d="M52600 14800
L52600 15250
" />
<path d="M54100 15250
L54100 16700
" />
<path d="M54100 16700
L49900 16700
" />
<path d="M49900 16700
L49900 15250
" />
<path d="M54100 14800
L54100 15250
" />
<path d="M54100 15250
L49900 15250
" />
<path d="M49900 15250
L49900 14800
" />
<path d="M52000 14800
L49900 14800
" />
<path d="M52000 14800
L54100 14800
" />
<path d="M47000 20000
L47000 22000
" />
<path d="M47000 22000
L46000 22000
" />
<path d="M46000 22000
L46000 20000
" />
<path d="M46000 20000
L47000 20000
" />
<path d="M46500 20000
L46500 19500
" />
<path d="M46500 22000
L46500 22500
" />
<path d="M49000 22000
L49000 20000
" />
<path d="M49000 20000
L50000 20000
" />
<path d="M50000 20000
L50000 22000
" />
<path d="M50000 22000
L49000 22000
" />
<path d="M49500 22000
L49500 22500
" />
<path d="M49500 20000
L49500 19500
" />
<path d="M51610 26389
L51610 27000
" />
<path d="M50389 27000
L50389 26389
" />
<path d="M50389 26389
L51610 26389
" />
<path d="M50500 27500
L51500 27500
" />
<path d="M55600 25000
L55050 25000
" />
<path d="M57350 25000
L57950 25000
" />
<path d="M57200 24700
L57200 25300
" />
<path d="M57300 24700
L57300 25300
" />
<path d="M57400 25000
L57400 25300
" />
<path d="M57400 25300
L55600 25300
" />
<path d="M55600 25300
L55600 24700
" />
<path d="M55600 24700
L57400 24700
" />
<path d="M57400 24700
L57400 25000
" />
<path d="M55110 26389
L55110 27000
" />
<path d="M53889 27000
L53889 26389
" />
<path d="M53889 26389
L55110 26389
" />
<path d="M54000 27500
L55000 27500
" />
<path d="M59110 26389
L59110 27000
" />
<path d="M57889 27000
L57889 26389
" />
<path d="M57889 26389
L59110 26389
" />
<path d="M58000 27500
L59000 27500
" />
<path d="M48110 26389
L48110 27000
" />
<path d="M46889 27000
L46889 26389
" />
<path d="M46889 26389
L48110 26389
" />
<path d="M47000 27500
L48000 27500
" />
<path d="M44110 26389
L44110 27000
" />
<path d="M42889 27000
L42889 26389
" />
<path d="M42889 26389
L44110 26389
" />
<path d="M43000 27500
L44000 27500
" />
<path d="M44600 25000
L44050 25000
" />
<path d="M46350 25000
L46950 25000
" />
<path d="M46200 24700
L46200 25300
" />
<path d="M46300 24700
L46300 25300
" />
<path d="M46400 25000
L46400 25300
" />
<path d="M46400 25300
L44600 25300
" />
<path d="M44600 25300
L44600 24700
" />
<path d="M44600 24700
L46400 24700
" />
<path d="M46400 24700
L46400 25000
" />
<path d="M40610 26389
L40610 27000
" />
<path d="M39389 27000
L39389 26389
" />
<path d="M39389 26389
L40610 26389
" />
<path d="M39500 27500
L40500 27500
" />
<path d="M38000 22000
L38000 20000
" />
<path d="M38000 20000
L39000 20000
" />
<path d="M39000 20000
L39000 22000
" />
<path d="M39000 22000
L38000 22000
" />
<path d="M38500 22000
L38500 22500
" />
<path d="M38500 20000
L38500 19500
" />
<path d="M36000 20000
L36000 22000
" />
<path d="M36000 22000
L35000 22000
" />
<path d="M35000 22000
L35000 20000
" />
<path d="M35000 20000
L36000 20000
" />
<path d="M35500 20000
L35500 19500
" />
<path d="M35500 22000
L35500 22500
" />
<path d="M40400 14800
L40400 15250
" />
<path d="M41600 14800
L41600 15250
" />
<path d="M43100 15250
L43100 16700
" />
<path d="M43100 16700
L38900 16700
" />
<path d="M38900 16700
L38900 15250
" />
<path d="M43100 14800
L43100 15250
" />
<path d="M43100 15250
L38900 15250
" />
<path d="M38900 15250
L38900 14800
" />
<path d="M41000 14800
L38900 14800
" />
<path d="M41000 14800
L43100 14800
" />
<path d="M29400 14800
L29400 15250
" />
<path d="M30600 14800
L30600 15250
" />
<path d="M32100 15250
L32100 16700
" />
<path d="M32100 16700
L27900 16700
" />
<path d="M27900 16700
L27900 15250
" />
<path d="M32100 14800
L32100 15250
" />
<path d="M32100 15250
L27900 15250
" />
<path d="M27900 15250
L27900 14800
" />
<path d="M30000 14800
L27900 14800
" />
<path d="M30000 14800
L32100 14800
" />
<path d="M27000 22000
L27000 20000
" />
<path d="M27000 20000
L28000 20000
" />
<path d="M28000 20000
L28000 22000
" />
<path d="M28000 22000
L27000 22000
" />
<path d="M27500 22000
L27500 22500
" />
<path d="M27500 20000
L27500 19500
" />
<path d="M21610 12389
L21610 13000
" />
<path d="M20389 13000
L20389 12389
" />
<path d="M20389 12389
L21610 12389
" />
<path d="M20500 13500
L21500 13500
" />
<path d="M21610 14889
L21610 15500
" />
<path d="M20389 15500
L20389 14889
" />
<path d="M20389 14889
L21610 14889
" />
<path d="M20500 16000
L21500 16000
" />
<path d="M29610 26389
L29610 27000
" />
<path d="M28389 27000
L28389 26389
" />
<path d="M28389 26389
L29610 26389
" />
<path d="M28500 27500
L29500 27500
" />
<path d="M33600 25000
L33050 25000
" />
<path d="M35350 25000
L35950 25000
" />
<path d="M35200 24700
L35200 25300
" />
<path d="M35300 24700
L35300 25300
" />
<path d="M35400 25000
L35400 25300
" />
<path d="M35400 25300
L33600 25300
" />
<path d="M33600 25300
L33600 24700
" />
<path d="M33600 24700
L35400 24700
" />
<path d="M35400 24700
L35400 25000
" />
<path d="M21610 28889
L21610 29500
" />
<path d="M20389 29500
L20389 28889
" />
<path d="M20389 28889
L21610 28889
" />
<path d="M20500 30000
L21500 30000
" />
<path d="M33110 26389
L33110 27000
" />
<path d="M31889 27000
L31889 26389
" />
<path d="M31889 26389
L33110 26389
" />
<path d="M32000 27500
L33000 27500
" />
<path d="M37110 26389
L37110 27000
" />
<path d="M35889 27000
L35889 26389
" />
<path d="M35889 26389
L37110 26389
" />
<path d="M36000 27500
L37000 27500
" />
<path d="M36610 41389
L36610 42000
" />
<path d="M35389 42000
L35389 41389
" />
<path d="M35389 41389
L36610 41389
" />
<path d="M35500 42500
L36500 42500
" />
<path d="M23678 20065
L23490 20196
" />
<path d="M23678 20290
L23284 20290
L23284 20140
L23303 20103
L23321 20084
L23359 20065
L23415 20065
L23453 20084
L23471 20103
L23490 20140
L23490 20290
" />
<path d="M23678 19690
L23678 19915
" />
<path d="M23678 19803
L23284 19803
L23340 19840
L23378 19878
L23396 19915
" />
<path d="M51962 14215
L51925 14196
L51887 14159
L51831 14103
L51793 14084
L51756 14084
" />
<path d="M51775 14178
L51737 14159
L51700 14121
L51681 14046
L51681 13915
L51700 13840
L51737 13803
L51775 13784
L51850 13784
L51887 13803
L51925 13840
L51943 13915
L51943 14046
L51925 14121
L51887 14159
L51850 14178
L51775 14178
" />
<path d="M52074 13784
L52318 13784
L52187 13934
L52243 13934
L52281 13953
L52299 13971
L52318 14009
L52318 14103
L52299 14140
L52281 14159
L52243 14178
L52131 14178
L52093 14159
L52074 14140
" />
<path d="M52465 15471
L52596 15471
" />
<path d="M52653 15678
L52465 15678
L52465 15284
L52653 15284
" />
<path d="M51671 15640
L51653 15659
L51596 15678
L51559 15678
L51503 15659
L51465 15621
L51446 15584
L51428 15509
L51428 15453
L51446 15378
L51465 15340
L51503 15303
L51559 15284
L51596 15284
L51653 15303
L51671 15321
" />
<path d="M50528 15471
L50584 15490
L50603 15509
L50621 15546
L50621 15603
L50603 15640
L50584 15659
L50546 15678
L50396 15678
L50396 15284
L50528 15284
L50565 15303
L50584 15321
L50603 15359
L50603 15396
L50584 15434
L50565 15453
L50528 15471
L50396 15471
" />
<path d="M45678 20065
L45490 20196
" />
<path d="M45678 20290
L45284 20290
L45284 20140
L45303 20103
L45321 20084
L45359 20065
L45415 20065
L45453 20084
L45471 20103
L45490 20140
L45490 20290
" />
<path d="M45284 19709
L45284 19896
L45471 19915
L45453 19896
L45434 19859
L45434 19765
L45453 19728
L45471 19709
L45509 19690
L45603 19690
L45640 19709
L45659 19728
L45678 19765
L45678 19859
L45659 19896
L45640 19915
" />
<path d="M48678 20065
L48490 20196
" />
<path d="M48678 20290
L48284 20290
L48284 20140
L48303 20103
L48321 20084
L48359 20065
L48415 20065
L48453 20084
L48471 20103
L48490 20140
L48490 20290
" />
<path d="M48284 19728
L48284 19803
L48303 19840
L48321 19859
L48378 19896
L48453 19915
L48603 19915
L48640 19896
L48659 19878
L48678 19840
L48678 19765
L48659 19728
L48640 19709
L48603 19690
L48509 19690
L48471 19709
L48453 19728
L48434 19765
L48434 19840
L48453 19878
L48471 19896
L48509 19915
" />
<path d="M50606 28678
L50606 28284
L50700 28284
L50756 28303
L50793 28340
L50812 28378
L50831 28453
L50831 28509
L50812 28584
L50793 28621
L50756 28659
L50700 28678
L50606 28678
" />
<path d="M51000 28678
L51000 28284
" />
<path d="M51393 28303
L51356 28284
L51299 28284
L51243 28303
L51206 28340
L51187 28378
L51168 28453
L51168 28509
L51187 28584
L51206 28621
L51243 28659
L51299 28678
L51337 28678
L51393 28659
L51412 28640
L51412 28509
L51337 28509
" />
<path d="M56209 25678
L56209 25284
L56303 25284
L56359 25303
L56396 25340
L56415 25378
L56434 25453
L56434 25509
L56415 25584
L56396 25621
L56359 25659
L56303 25678
L56209 25678
" />
<path d="M56565 25284
L56809 25284
L56678 25434
L56734 25434
L56771 25453
L56790 25471
L56809 25509
L56809 25603
L56790 25640
L56771 25659
L56734 25678
L56621 25678
L56584 25659
L56565 25640
" />
<path d="M53806 28284
L53937 28678
L54068 28284
" />
<path d="M54275 28284
L54350 28284
L54387 28303
L54425 28340
L54443 28415
L54443 28546
L54425 28621
L54387 28659
L54350 28678
L54275 28678
L54237 28659
L54200 28621
L54181 28546
L54181 28415
L54200 28340
L54237 28303
L54275 28284
" />
<path d="M54612 28284
L54612 28603
L54631 28640
L54649 28659
L54687 28678
L54762 28678
L54799 28659
L54818 28640
L54837 28603
L54837 28284
" />
<path d="M54968 28284
L55193 28284
" />
<path d="M55081 28678
L55081 28284
" />
<path d="M57806 28284
L57937 28678
L58068 28284
" />
<path d="M58275 28284
L58350 28284
L58387 28303
L58425 28340
L58443 28415
L58443 28546
L58425 28621
L58387 28659
L58350 28678
L58275 28678
L58237 28659
L58200 28621
L58181 28546
L58181 28415
L58200 28340
L58237 28303
L58275 28284
" />
<path d="M58612 28284
L58612 28603
L58631 28640
L58649 28659
L58687 28678
L58762 28678
L58799 28659
L58818 28640
L58837 28603
L58837 28284
" />
<path d="M58968 28284
L59193 28284
" />
<path d="M59081 28678
L59081 28284
" />
<path d="M46806 28284
L46937 28678
L47068 28284
" />
<path d="M47275 28284
L47350 28284
L47387 28303
L47425 28340
L47443 28415
L47443 28546
L47425 28621
L47387 28659
L47350 28678
L47275 28678
L47237 28659
L47200 28621
L47181 28546
L47181 28415
L47200 28340
L47237 28303
L47275 28284
" />
<path d="M47612 28284
L47612 28603
L47631 28640
L47649 28659
L47687 28678
L47762 28678
L47799 28659
L47818 28640
L47837 28603
L47837 28284
" />
<path d="M47968 28284
L48193 28284
" />
<path d="M48081 28678
L48081 28284
" />
<path d="M42806 28284
L42937 28678
L43068 28284
" />
<path d="M43275 28284
L43350 28284
L43387 28303
L43425 28340
L43443 28415
L43443 28546
L43425 28621
L43387 28659
L43350 28678
L43275 28678
L43237 28659
L43200 28621
L43181 28546
L43181 28415
L43200 28340
L43237 28303
L43275 28284
" />
<path d="M43612 28284
L43612 28603
L43631 28640
L43649 28659
L43687 28678
L43762 28678
L43799 28659
L43818 28640
L43837 28603
L43837 28284
" />
<path d="M43968 28284
L44193 28284
" />
<path d="M44081 28678
L44081 28284
" />
<path d="M45209 25678
L45209 25284
L45303 25284
L45359 25303
L45396 25340
L45415 25378
L45434 25453
L45434 25509
L45415 25584
L45396 25621
L45359 25659
L45303 25678
L45209 25678
" />
<path d="M45584 25321
L45603 25303
L45640 25284
L45734 25284
L45771 25303
L45790 25321
L45809 25359
L45809 25396
L45790 25453
L45565 25678
L45809 25678
" />
<path d="M39606 28678
L39606 28284
L39700 28284
L39756 28303
L39793 28340
L39812 28378
L39831 28453
L39831 28509
L39812 28584
L39793 28621
L39756 28659
L39700 28678
L39606 28678
" />
<path d="M40000 28678
L40000 28284
" />
<path d="M40393 28303
L40356 28284
L40299 28284
L40243 28303
L40206 28340
L40187 28378
L40168 28453
L40168 28509
L40187 28584
L40206 28621
L40243 28659
L40299 28678
L40337 28678
L40393 28659
L40412 28640
L40412 28509
L40337 28509
" />
<path d="M37678 20065
L37490 20196
" />
<path d="M37678 20290
L37284 20290
L37284 20140
L37303 20103
L37321 20084
L37359 20065
L37415 20065
L37453 20084
L37471 20103
L37490 20140
L37490 20290
" />
<path d="M37415 19728
L37678 19728
" />
<path d="M37265 19821
L37546 19915
L37546 19671
" />
<path d="M34678 20065
L34490 20196
" />
<path d="M34678 20290
L34284 20290
L34284 20140
L34303 20103
L34321 20084
L34359 20065
L34415 20065
L34453 20084
L34471 20103
L34490 20140
L34490 20290
" />
<path d="M34284 19934
L34284 19690
L34434 19821
L34434 19765
L34453 19728
L34471 19709
L34509 19690
L34603 19690
L34640 19709
L34659 19728
L34678 19765
L34678 19878
L34659 19915
L34640 19934
" />
<path d="M40962 14215
L40925 14196
L40887 14159
L40831 14103
L40793 14084
L40756 14084
" />
<path d="M40775 14178
L40737 14159
L40700 14121
L40681 14046
L40681 13915
L40700 13840
L40737 13803
L40775 13784
L40850 13784
L40887 13803
L40925 13840
L40943 13915
L40943 14046
L40925 14121
L40887 14159
L40850 14178
L40775 14178
" />
<path d="M41093 13821
L41112 13803
L41149 13784
L41243 13784
L41281 13803
L41299 13821
L41318 13859
L41318 13896
L41299 13953
L41074 14178
L41318 14178
" />
<path d="M41465 15471
L41596 15471
" />
<path d="M41653 15678
L41465 15678
L41465 15284
L41653 15284
" />
<path d="M40671 15640
L40653 15659
L40596 15678
L40559 15678
L40503 15659
L40465 15621
L40446 15584
L40428 15509
L40428 15453
L40446 15378
L40465 15340
L40503 15303
L40559 15284
L40596 15284
L40653 15303
L40671 15321
" />
<path d="M39528 15471
L39584 15490
L39603 15509
L39621 15546
L39621 15603
L39603 15640
L39584 15659
L39546 15678
L39396 15678
L39396 15284
L39528 15284
L39565 15303
L39584 15321
L39603 15359
L39603 15396
L39584 15434
L39565 15453
L39528 15471
L39396 15471
" />
<path d="M29962 14215
L29925 14196
L29887 14159
L29831 14103
L29793 14084
L29756 14084
" />
<path d="M29775 14178
L29737 14159
L29700 14121
L29681 14046
L29681 13915
L29700 13840
L29737 13803
L29775 13784
L29850 13784
L29887 13803
L29925 13840
L29943 13915
L29943 14046
L29925 14121
L29887 14159
L29850 14178
L29775 14178
" />
<path d="M30318 14178
L30093 14178
" />
<path d="M30206 14178
L30206 13784
L30168 13840
L30131 13878
L30093 13896
" />
<path d="M30465 15471
L30596 15471
" />
<path d="M30653 15678
L30465 15678
L30465 15284
L30653 15284
" />
<path d="M29671 15640
L29653 15659
L29596 15678
L29559 15678
L29503 15659
L29465 15621
L29446 15584
L29428 15509
L29428 15453
L29446 15378
L29465 15340
L29503 15303
L29559 15284
L29596 15284
L29653 15303
L29671 15321
" />
<path d="M28528 15471
L28584 15490
L28603 15509
L28621 15546
L28621 15603
L28603 15640
L28584 15659
L28546 15678
L28396 15678
L28396 15284
L28528 15284
L28565 15303
L28584 15321
L28603 15359
L28603 15396
L28584 15434
L28565 15453
L28528 15471
L28396 15471
" />
<path d="M26678 20065
L26490 20196
" />
<path d="M26678 20290
L26284 20290
L26284 20140
L26303 20103
L26321 20084
L26359 20065
L26415 20065
L26453 20084
L26471 20103
L26490 20140
L26490 20290
" />
<path d="M26321 19915
L26303 19896
L26284 19859
L26284 19765
L26303 19728
L26321 19709
L26359 19690
L26396 19690
L26453 19709
L26678 19934
L26678 19690
" />
<path d="M20700 11303
L20662 11284
L20606 11284
L20550 11303
L20512 11340
L20493 11378
L20475 11453
L20475 11509
L20493 11584
L20512 11621
L20550 11659
L20606 11678
L20643 11678
L20700 11659
L20718 11640
L20718 11509
L20643 11509
" />
<path d="M20887 11678
L20887 11284
L21112 11678
L21112 11284
" />
<path d="M21299 11678
L21299 11284
L21393 11284
L21449 11303
L21487 11340
L21506 11378
L21524 11453
L21524 11509
L21506 11584
L21487 11621
L21449 11659
L21393 11678
L21299 11678
" />
<path d="M20700 16303
L20662 16284
L20606 16284
L20550 16303
L20512 16340
L20493 16378
L20475 16453
L20475 16509
L20493 16584
L20512 16621
L20550 16659
L20606 16678
L20643 16678
L20700 16659
L20718 16640
L20718 16509
L20643 16509
" />
<path d="M20887 16678
L20887 16284
L21112 16678
L21112 16284
" />
<path d="M21299 16678
L21299 16284
L21393 16284
L21449 16303
L21487 16340
L21506 16378
L21524 16453
L21524 16509
L21506 16584
L21487 16621
L21449 16659
L21393 16678
L21299 16678
" />
<path d="M28606 28678
L28606 28284
L28700 28284
L28756 28303
L28793 28340
L28812 28378
L28831 28453
L28831 28509
L28812 28584
L28793 28621
L28756 28659
L28700 28678
L28606 28678
" />
<path d="M29000 28678
L29000 28284
" />
<path d="M29393 28303
L29356 28284
L29299 28284
L29243 28303
L29206 28340
L29187 28378
L29168 28453
L29168 28509
L29187 28584
L29206 28621
L29243 28659
L29299 28678
L29337 28678
L29393 28659
L29412 28640
L29412 28509
L29337 28509
" />
<path d="M34209 25678
L34209 25284
L34303 25284
L34359 25303
L34396 25340
L34415 25378
L34434 25453
L34434 25509
L34415 25584
L34396 25621
L34359 25659
L34303 25678
L34209 25678
" />
<path d="M34809 25678
L34584 25678
" />
<path d="M34696 25678
L34696 25284
L34659 25340
L34621 25378
L34584 25396
" />
<path d="M20568 27276
L20700 27670
L20831 27276
" />
<path d="M20962 27670
L20962 27276
" />
<path d="M21149 27670
L21149 27276
L21374 27670
L21374 27276
" />
<path d="M31806 28284
L31937 28678
L32068 28284
" />
<path d="M32275 28284
L32350 28284
L32387 28303
L32425 28340
L32443 28415
L32443 28546
L32425 28621
L32387 28659
L32350 28678
L32275 28678
L32237 28659
L32200 28621
L32181 28546
L32181 28415
L32200 28340
L32237 28303
L32275 28284
" />
<path d="M32612 28284
L32612 28603
L32631 28640
L32649 28659
L32687 28678
L32762 28678
L32799 28659
L32818 28640
L32837 28603
L32837 28284
" />
<path d="M32968 28284
L33193 28284
" />
<path d="M33081 28678
L33081 28284
" />
<path d="M35806 28284
L35937 28678
L36068 28284
" />
<path d="M36275 28284
L36350 28284
L36387 28303
L36425 28340
L36443 28415
L36443 28546
L36425 28621
L36387 28659
L36350 28678
L36275 28678
L36237 28659
L36200 28621
L36181 28546
L36181 28415
L36200 28340
L36237 28303
L36275 28284
" />
<path d="M36612 28284
L36612 28603
L36631 28640
L36649 28659
L36687 28678
L36762 28678
L36799 28659
L36818 28640
L36837 28603
L36837 28284
" />
<path d="M36968 28284
L37193 28284
" />
<path d="M37081 28678
L37081 28284
" />
</g> 
</svg>
