<?xml version="1.0" encoding="UTF-8"?><svg xmlns="http://www.w3.org/2000/svg" xmlns:xlink="http://www.w3.org/1999/xlink" fill-opacity="1" color-rendering="auto" color-interpolation="auto" text-rendering="auto" stroke="black" stroke-linecap="square" width="1345" stroke-miterlimit="10" shape-rendering="auto" stroke-opacity="1" fill="black" stroke-dasharray="none" font-weight="normal" stroke-width="1" height="664" font-family="'Dialog'" font-style="normal" stroke-linejoin="miter" font-size="12" stroke-dashoffset="0" image-rendering="auto">
  <!--Generated by ySVG 2.5-->
  <defs id="genericDefs"/>
  <g>
    <defs id="defs1">
      <clipPath clipPathUnits="userSpaceOnUse" id="clipPath1">
        <path d="M0 0 L1345 0 L1345 664 L0 664 L0 0 Z"/>
      </clipPath>
      <clipPath clipPathUnits="userSpaceOnUse" id="clipPath2">
        <path d="M-312 152 L1033 152 L1033 816 L-312 816 L-312 152 Z"/>
      </clipPath>
    </defs>
    <g fill="white" text-rendering="geometricPrecision" shape-rendering="geometricPrecision" transform="translate(312,-152)" stroke="white">
      <rect x="-312" width="1345" height="664" y="152" clip-path="url(#clipPath2)" stroke="none"/>
    </g>
    <g fill="rgb(78,189,255)" text-rendering="geometricPrecision" shape-rendering="geometricPrecision" transform="matrix(1,0,0,1,312,-152)" stroke="rgb(78,189,255)">
      <rect x="332" y="318" clip-path="url(#clipPath2)" width="194" rx="4" ry="4" height="354.656" stroke="none"/>
    </g>
    <g font-size="16" stroke-linecap="butt" transform="matrix(1,0,0,1,312,-152)" text-rendering="geometricPrecision" font-family="sans-serif" shape-rendering="geometricPrecision" font-weight="bold" stroke-miterlimit="1.45">
      <text x="375.668" xml:space="preserve" y="501.6132" clip-path="url(#clipPath2)" stroke="none">Arduino Mega</text>
      <rect x="332" y="318" clip-path="url(#clipPath2)" fill="none" width="194" rx="4" ry="4" height="354.656"/>
    </g>
    <g fill="rgb(255,114,15)" text-rendering="geometricPrecision" shape-rendering="geometricPrecision" transform="matrix(1,0,0,1,312,-152)" stroke="rgb(255,114,15)">
      <rect x="598" y="644.5" clip-path="url(#clipPath2)" width="253" rx="4" ry="4" height="53" stroke="none"/>
    </g>
    <g font-size="14" stroke-linecap="butt" transform="matrix(1,0,0,1,312,-152)" text-rendering="geometricPrecision" font-family="sans-serif" shape-rendering="geometricPrecision" stroke-miterlimit="1.45">
      <text x="610.5107" xml:space="preserve" y="676.4995" clip-path="url(#clipPath2)" stroke="none">HC-SR04 Ultrasonic Range Detector</text>
      <rect x="598" y="644.5" clip-path="url(#clipPath2)" fill="none" width="253" rx="4" ry="4" height="53"/>
    </g>
    <g fill="rgb(255,114,15)" text-rendering="geometricPrecision" shape-rendering="geometricPrecision" transform="matrix(1,0,0,1,312,-152)" stroke="rgb(255,114,15)">
      <rect x="598" y="471" clip-path="url(#clipPath2)" width="253" rx="4" ry="4" height="53" stroke="none"/>
    </g>
    <g font-size="14" stroke-linecap="butt" transform="matrix(1,0,0,1,312,-152)" text-rendering="geometricPrecision" font-family="sans-serif" shape-rendering="geometricPrecision" stroke-miterlimit="1.45">
      <text x="612.8452" xml:space="preserve" y="502.9995" clip-path="url(#clipPath2)" stroke="none">ADXL345 Triple Axis Accelerometer</text>
      <rect x="598" y="471" clip-path="url(#clipPath2)" fill="none" width="253" rx="4" ry="4" height="53"/>
    </g>
    <g fill="rgb(255,114,15)" text-rendering="geometricPrecision" shape-rendering="geometricPrecision" transform="matrix(1,0,0,1,312,-152)" stroke="rgb(255,114,15)">
      <rect x="598" y="384.25" clip-path="url(#clipPath2)" width="315.9333" rx="4" ry="4" height="53" stroke="none"/>
    </g>
    <g font-size="14" stroke-linecap="butt" transform="matrix(1,0,0,1,312,-152)" text-rendering="geometricPrecision" font-family="sans-serif" shape-rendering="geometricPrecision" stroke-miterlimit="1.45">
      <text x="602.681" xml:space="preserve" y="416.2495" clip-path="url(#clipPath2)" stroke="none">Pololu QTR-1A Reflectance Sensor (Right Tread)</text>
      <rect x="598" y="384.25" clip-path="url(#clipPath2)" fill="none" width="315.9333" rx="4" ry="4" height="53"/>
    </g>
    <g fill="rgb(255,114,15)" text-rendering="geometricPrecision" shape-rendering="geometricPrecision" transform="matrix(1,0,0,1,312,-152)" stroke="rgb(255,114,15)">
      <rect x="598" y="557.75" clip-path="url(#clipPath2)" width="253" rx="4" ry="4" height="53" stroke="none"/>
    </g>
    <g font-size="14" stroke-linecap="butt" transform="matrix(1,0,0,1,312,-152)" text-rendering="geometricPrecision" font-family="sans-serif" shape-rendering="geometricPrecision" stroke-miterlimit="1.45">
      <text x="607.397" xml:space="preserve" y="589.7495" clip-path="url(#clipPath2)" stroke="none">HMC5883L Triple Axis Magnetometer</text>
      <rect x="598" y="557.75" clip-path="url(#clipPath2)" fill="none" width="253" rx="4" ry="4" height="53"/>
    </g>
    <g fill="lime" text-rendering="geometricPrecision" shape-rendering="geometricPrecision" transform="matrix(1,0,0,1,312,-152)" stroke="lime">
      <circle r="47.5" clip-path="url(#clipPath2)" cx="-17.5933" cy="418.3125" stroke="none"/>
    </g>
    <g font-size="14" stroke-linecap="butt" transform="matrix(1,0,0,1,312,-152)" text-rendering="geometricPrecision" font-family="sans-serif" shape-rendering="geometricPrecision" stroke-miterlimit="1.45">
      <text x="-51.0484" xml:space="preserve" y="423.812" clip-path="url(#clipPath2)" stroke="none">Gearmotor</text>
      <circle fill="none" r="47.5" clip-path="url(#clipPath2)" cx="-17.5933" cy="418.3125"/>
    </g>
    <g fill="rgb(0,217,146)" text-rendering="geometricPrecision" shape-rendering="geometricPrecision" transform="matrix(1,0,0,1,312,-152)" stroke="rgb(0,217,146)">
      <circle r="47.5" clip-path="url(#clipPath2)" cx="-17.5933" cy="537.5" stroke="none"/>
    </g>
    <g font-size="14" stroke-linecap="butt" transform="matrix(1,0,0,1,312,-152)" text-rendering="geometricPrecision" font-family="sans-serif" shape-rendering="geometricPrecision" stroke-miterlimit="1.45">
      <text x="-44.838" xml:space="preserve" y="542.9995" clip-path="url(#clipPath2)" stroke="none">Solenoid</text>
      <circle fill="none" r="47.5" clip-path="url(#clipPath2)" cx="-17.5933" cy="537.5"/>
    </g>
    <g fill="rgb(255,204,0)" text-rendering="geometricPrecision" shape-rendering="geometricPrecision" transform="matrix(1,0,0,1,312,-152)" stroke="rgb(255,204,0)">
      <rect x="80.9067" y="500.5" clip-path="url(#clipPath2)" width="185.5" rx="4" ry="4" height="74" stroke="none"/>
    </g>
    <g font-size="14" stroke-linecap="butt" transform="matrix(1,0,0,1,312,-152)" text-rendering="geometricPrecision" font-family="sans-serif" shape-rendering="geometricPrecision" stroke-miterlimit="1.45">
      <text x="93.9155" xml:space="preserve" y="525.8481" clip-path="url(#clipPath2)" stroke="none">TIP120 NPN-D Transistor</text>
      <text x="128.9018" xml:space="preserve" y="542.9995" clip-path="url(#clipPath2)" stroke="none">1N4001 Diode</text>
      <text x="133.4135" xml:space="preserve" y="560.1509" clip-path="url(#clipPath2)" stroke="none">1kΩ Resistor</text>
      <rect x="80.9067" y="500.5" clip-path="url(#clipPath2)" fill="none" width="185.5" rx="4" ry="4" height="74"/>
    </g>
    <g fill="rgb(0,217,146)" text-rendering="geometricPrecision" shape-rendering="geometricPrecision" transform="matrix(1,0,0,1,312,-152)" stroke="rgb(0,217,146)">
      <circle r="47.5" clip-path="url(#clipPath2)" cx="-17.5933" cy="678.746" stroke="none"/>
    </g>
    <g font-size="14" stroke-linecap="butt" transform="matrix(1,0,0,1,312,-152)" text-rendering="geometricPrecision" font-family="sans-serif" shape-rendering="geometricPrecision" stroke-miterlimit="1.45">
      <text x="-44.838" xml:space="preserve" y="684.2455" clip-path="url(#clipPath2)" stroke="none">Solenoid</text>
      <circle fill="none" r="47.5" clip-path="url(#clipPath2)" cx="-17.5933" cy="678.746"/>
    </g>
    <g fill="rgb(255,204,0)" text-rendering="geometricPrecision" shape-rendering="geometricPrecision" transform="matrix(1,0,0,1,312,-152)" stroke="rgb(255,204,0)">
      <rect x="80.9067" y="625.5" clip-path="url(#clipPath2)" width="185.5" rx="4" ry="4" height="74" stroke="none"/>
    </g>
    <g font-size="14" stroke-linecap="butt" transform="matrix(1,0,0,1,312,-152)" text-rendering="geometricPrecision" font-family="sans-serif" shape-rendering="geometricPrecision" stroke-miterlimit="1.45">
      <text x="93.9155" xml:space="preserve" y="650.8481" clip-path="url(#clipPath2)" stroke="none">TIP120 NPN-D Transistor</text>
      <text x="128.9018" xml:space="preserve" y="667.9995" clip-path="url(#clipPath2)" stroke="none">1N4001 Diode</text>
      <text x="133.4135" xml:space="preserve" y="685.1509" clip-path="url(#clipPath2)" stroke="none">1kΩ Resistor</text>
      <rect x="80.9067" y="625.5" clip-path="url(#clipPath2)" fill="none" width="185.5" rx="4" ry="4" height="74"/>
    </g>
    <g fill="rgb(255,114,15)" text-rendering="geometricPrecision" shape-rendering="geometricPrecision" transform="matrix(1,0,0,1,312,-152)" stroke="rgb(255,114,15)">
      <rect x="598" y="297.5" clip-path="url(#clipPath2)" width="315.9333" rx="4" ry="4" height="53" stroke="none"/>
    </g>
    <g font-size="14" stroke-linecap="butt" transform="matrix(1,0,0,1,312,-152)" text-rendering="geometricPrecision" font-family="sans-serif" shape-rendering="geometricPrecision" stroke-miterlimit="1.45">
      <text x="607.3466" xml:space="preserve" y="329.4995" clip-path="url(#clipPath2)" stroke="none">Pololu QTR-1A Reflectance Sensor (Left Tread)</text>
      <rect x="598" y="297.5" clip-path="url(#clipPath2)" fill="none" width="315.9333" rx="4" ry="4" height="53"/>
    </g>
    <g fill="rgb(255,114,15)" text-rendering="geometricPrecision" shape-rendering="geometricPrecision" transform="matrix(1,0,0,1,312,-152)" stroke="rgb(255,114,15)">
      <rect x="80.9067" y="333" clip-path="url(#clipPath2)" width="200.0933" rx="4" ry="4" height="53" stroke="none"/>
    </g>
    <g font-size="14" stroke-linecap="butt" transform="matrix(1,0,0,1,312,-152)" text-rendering="geometricPrecision" font-family="sans-serif" shape-rendering="geometricPrecision" stroke-miterlimit="1.45">
      <text x="119.1018" xml:space="preserve" y="364.9995" clip-path="url(#clipPath2)" stroke="none">LM298 Motor Driver</text>
      <rect x="80.9067" y="333" clip-path="url(#clipPath2)" fill="none" width="200.0933" rx="4" ry="4" height="53"/>
    </g>
    <g fill="lime" text-rendering="geometricPrecision" shape-rendering="geometricPrecision" transform="matrix(1,0,0,1,312,-152)" stroke="lime">
      <circle r="47.5" clip-path="url(#clipPath2)" cx="-17.5933" cy="304.25" stroke="none"/>
    </g>
    <g font-size="14" stroke-linecap="butt" transform="matrix(1,0,0,1,312,-152)" text-rendering="geometricPrecision" font-family="sans-serif" shape-rendering="geometricPrecision" stroke-miterlimit="1.45">
      <text x="-51.0484" xml:space="preserve" y="309.7495" clip-path="url(#clipPath2)" stroke="none">Gearmotor</text>
      <circle fill="none" r="47.5" clip-path="url(#clipPath2)" cx="-17.5933" cy="304.25"/>
    </g>
    <g fill="rgb(255,204,0)" text-rendering="geometricPrecision" shape-rendering="geometricPrecision" transform="matrix(1,0,0,1,312,-152)" stroke="rgb(255,204,0)">
      <path d="M-281.4838 473.7387 L-149.79 473.7387 L-164.4226 503.7387 L-296.1164 503.7387 Z" fill-rule="evenodd" clip-path="url(#clipPath2)" stroke="none"/>
    </g>
    <g text-rendering="geometricPrecision" stroke-miterlimit="1.45" shape-rendering="geometricPrecision" font-family="sans-serif" transform="matrix(1,0,0,1,312,-152)" stroke-linecap="butt">
      <text x="-267.3116" xml:space="preserve" y="493.4526" clip-path="url(#clipPath2)" stroke="none">11.1 Volt Battery</text>
      <path fill="none" d="M-281.4838 473.7387 L-149.79 473.7387 L-164.4226 503.7387 L-296.1164 503.7387 Z" clip-path="url(#clipPath2)" fill-rule="evenodd"/>
    </g>
    <g fill="rgb(255,204,0)" text-rendering="geometricPrecision" shape-rendering="geometricPrecision" transform="matrix(1,0,0,1,312,-152)" stroke="rgb(255,204,0)">
      <path d="M370.4695 770.6169 L502.1632 770.6169 L487.5305 800.6169 L355.8368 800.6169 Z" fill-rule="evenodd" clip-path="url(#clipPath2)" stroke="none"/>
    </g>
    <g text-rendering="geometricPrecision" stroke-miterlimit="1.45" shape-rendering="geometricPrecision" font-family="sans-serif" transform="matrix(1,0,0,1,312,-152)" stroke-linecap="butt">
      <text x="392.9824" xml:space="preserve" y="790.3307" clip-path="url(#clipPath2)" stroke="none">9 Volt Battery</text>
      <path fill="none" d="M370.4695 770.6169 L502.1632 770.6169 L487.5305 800.6169 L355.8368 800.6169 Z" clip-path="url(#clipPath2)" fill-rule="evenodd"/>
      <text x="652.494" xml:space="preserve" font-size="14" y="190.0125" clip-path="url(#clipPath2)" stroke="none">3.3 Volt Rail from Arduino Voltage Regulator  </text>
      <text x="652.4974" xml:space="preserve" font-size="14" y="207.1638" clip-path="url(#clipPath2)" stroke="none">5 Volt Rail from Arduino Voltage Regulator     </text>
      <text x="654.0867" xml:space="preserve" font-size="14" y="224.3152" clip-path="url(#clipPath2)" stroke="none">9 Volt Rail from Battery                                   </text>
      <text x="652.1351" xml:space="preserve" font-size="14" y="241.4666" clip-path="url(#clipPath2)" stroke="none">11.1 Volt Rail from Battery                               </text>
      <rect x="570.7523" y="167.5" clip-path="url(#clipPath2)" fill="none" width="446.744" rx="4" ry="4" height="85.48"/>
    </g>
    <g fill="red" text-rendering="geometricPrecision" shape-rendering="geometricPrecision" transform="matrix(1,0,0,1,312,-152)" stroke="red">
      <rect x="598" y="178.4702" clip-path="url(#clipPath2)" width="30" rx="4" ry="4" height="11.056" stroke="none"/>
    </g>
    <g text-rendering="geometricPrecision" stroke-miterlimit="1.45" shape-rendering="geometricPrecision" transform="matrix(1,0,0,1,312,-152)" stroke-linecap="butt">
      <rect x="598" y="178.4702" clip-path="url(#clipPath2)" fill="none" width="30" rx="4" ry="4" height="11.056"/>
    </g>
    <g fill="rgb(204,153,255)" text-rendering="geometricPrecision" shape-rendering="geometricPrecision" transform="matrix(1,0,0,1,312,-152)" stroke="rgb(204,153,255)">
      <rect x="598" y="195.8825" clip-path="url(#clipPath2)" width="30" rx="4" ry="4" height="11.056" stroke="none"/>
    </g>
    <g text-rendering="geometricPrecision" stroke-miterlimit="1.45" shape-rendering="geometricPrecision" transform="matrix(1,0,0,1,312,-152)" stroke-linecap="butt">
      <rect x="598" y="195.8825" clip-path="url(#clipPath2)" fill="none" width="30" rx="4" ry="4" height="11.056"/>
    </g>
    <g fill="blue" text-rendering="geometricPrecision" shape-rendering="geometricPrecision" transform="matrix(1,0,0,1,312,-152)" stroke="blue">
      <rect x="598" y="213.2947" clip-path="url(#clipPath2)" width="30" rx="4" ry="4" height="11.056" stroke="none"/>
    </g>
    <g text-rendering="geometricPrecision" stroke-miterlimit="1.45" shape-rendering="geometricPrecision" transform="matrix(1,0,0,1,312,-152)" stroke-linecap="butt">
      <rect x="598" y="213.2947" clip-path="url(#clipPath2)" fill="none" width="30" rx="4" ry="4" height="11.056"/>
    </g>
    <g fill="lime" text-rendering="geometricPrecision" shape-rendering="geometricPrecision" transform="matrix(1,0,0,1,312,-152)" stroke="lime">
      <rect x="598" y="232.377" clip-path="url(#clipPath2)" width="30" rx="4" ry="4" height="11.056" stroke="none"/>
    </g>
    <g text-rendering="geometricPrecision" stroke-miterlimit="1.45" shape-rendering="geometricPrecision" transform="matrix(1,0,0,1,312,-152)" stroke-linecap="butt">
      <rect x="598" y="232.377" clip-path="url(#clipPath2)" fill="none" width="30" rx="4" ry="4" height="11.056"/>
      <path fill="none" d="M525.2488 671 L590.8754 671 L598.0198 671" stroke-width="3" clip-path="url(#clipPath2)"/>
      <path fill="none" d="M526.0346 648.1632 L597.9818 648.1632" stroke-width="3" clip-path="url(#clipPath2)" stroke="rgb(204,153,255)"/>
      <path fill="none" d="M525.997 496.041 L597.9641 496.5699" stroke-width="3" clip-path="url(#clipPath2)"/>
      <path fill="none" d="M526.0226 476.8817 L597.9709 476.8817" stroke-width="3" clip-path="url(#clipPath2)" stroke="red"/>
      <path fill="none" d="M526.0184 410.75 L564.9694 410.75 L598.0302 410.75" stroke-width="3" clip-path="url(#clipPath2)"/>
      <path fill="none" d="M526.0188 384.584 L600.4177 384.584" stroke-width="3" clip-path="url(#clipPath2)" stroke="rgb(204,153,255)"/>
      <path fill="none" d="M526.0201 584.25 L528.4114 584.25 L597.9711 584.25" stroke-width="3" clip-path="url(#clipPath2)"/>
      <path fill="none" d="M598.0583 560.9813 L525.9815 560.9813" stroke-width="3" clip-path="url(#clipPath2)" stroke="red"/>
      <path fill="none" d="M29.9067 537.5 L80.9 537.5" stroke-width="3" clip-path="url(#clipPath2)" stroke="lime"/>
      <path fill="none" d="M266.4285 537.5 L332.0291 537.5" stroke-width="3" clip-path="url(#clipPath2)"/>
      <path fill="none" d="M29.9067 678.746 L80.8648 678.746" stroke-width="3" clip-path="url(#clipPath2)" stroke="lime"/>
      <path fill="none" d="M266.3854 662.0722 L332.0105 661.7694" stroke-width="3" clip-path="url(#clipPath2)"/>
      <path fill="none" d="M526.0215 343.9935 L597.9884 343.9935" stroke-width="3" clip-path="url(#clipPath2)"/>
      <path fill="none" d="M525.997 324 L597.991 324" stroke-width="3" clip-path="url(#clipPath2)" stroke="rgb(204,153,255)"/>
      <path fill="none" d="M27.9506 404.8217 L91.4901 386.0004" stroke-width="3" clip-path="url(#clipPath2)" stroke="lime"/>
      <path fill="none" d="M280.9654 359.5 L332.0196 359.5" stroke-width="3" clip-path="url(#clipPath2)"/>
      <path fill="none" d="M28.1679 316.9841 L85.7236 333.0002" stroke-width="3" clip-path="url(#clipPath2)" stroke="lime"/>
      <path fill="none" d="M-154.5527 483.5616 L157.9693 459.9075 L157.9693 385.9706" stroke-width="3" clip-path="url(#clipPath2)" stroke="lime"/>
      <path fill="none" d="M-198.5936 503.7449 L-44.3014 598.7926 L161.8093 598.7926 L173.6567 598.7926 L173.6567 574.5209" stroke-width="3" clip-path="url(#clipPath2)" stroke="lime"/>
      <path fill="none" d="M-198.6821 503.7381 L-24.7193 611.246 L180.9533 611.246 L180.9533 625.4778" stroke-width="3" clip-path="url(#clipPath2)" stroke="lime"/>
      <path fill="none" d="M429 770.6276 L429 672.6664" stroke-width="3" clip-path="url(#clipPath2)" stroke="blue"/>
    </g>
  </g>
</svg>
